%TF.GenerationSoftware,KiCad,Pcbnew,9.0.5*%
%TF.CreationDate,2025-11-01T21:25:22+11:00*%
%TF.ProjectId,YetAnotherAuthKey,59657441-6e6f-4746-9865-72417574684b,rev?*%
%TF.SameCoordinates,Original*%
%TF.FileFunction,Legend,Bot*%
%TF.FilePolarity,Positive*%
%FSLAX46Y46*%
G04 Gerber Fmt 4.6, Leading zero omitted, Abs format (unit mm)*
G04 Created by KiCad (PCBNEW 9.0.5) date 2025-11-01 21:25:22*
%MOMM*%
%LPD*%
G01*
G04 APERTURE LIST*
%ADD10C,0.100000*%
%ADD11C,0.000000*%
G04 APERTURE END LIST*
D10*
X195346228Y-59969360D02*
X195822419Y-59969360D01*
X194822419Y-59636027D02*
X195346228Y-59969360D01*
X195346228Y-59969360D02*
X194822419Y-60302693D01*
X195774800Y-61016979D02*
X195822419Y-60921741D01*
X195822419Y-60921741D02*
X195822419Y-60731265D01*
X195822419Y-60731265D02*
X195774800Y-60636027D01*
X195774800Y-60636027D02*
X195679561Y-60588408D01*
X195679561Y-60588408D02*
X195298609Y-60588408D01*
X195298609Y-60588408D02*
X195203371Y-60636027D01*
X195203371Y-60636027D02*
X195155752Y-60731265D01*
X195155752Y-60731265D02*
X195155752Y-60921741D01*
X195155752Y-60921741D02*
X195203371Y-61016979D01*
X195203371Y-61016979D02*
X195298609Y-61064598D01*
X195298609Y-61064598D02*
X195393847Y-61064598D01*
X195393847Y-61064598D02*
X195489085Y-60588408D01*
X195155752Y-61350313D02*
X195155752Y-61731265D01*
X194822419Y-61493170D02*
X195679561Y-61493170D01*
X195679561Y-61493170D02*
X195774800Y-61540789D01*
X195774800Y-61540789D02*
X195822419Y-61636027D01*
X195822419Y-61636027D02*
X195822419Y-61731265D01*
X195536704Y-62016980D02*
X195536704Y-62493170D01*
X195822419Y-61921742D02*
X194822419Y-62255075D01*
X194822419Y-62255075D02*
X195822419Y-62588408D01*
X195155752Y-62921742D02*
X195822419Y-62921742D01*
X195250990Y-62921742D02*
X195203371Y-62969361D01*
X195203371Y-62969361D02*
X195155752Y-63064599D01*
X195155752Y-63064599D02*
X195155752Y-63207456D01*
X195155752Y-63207456D02*
X195203371Y-63302694D01*
X195203371Y-63302694D02*
X195298609Y-63350313D01*
X195298609Y-63350313D02*
X195822419Y-63350313D01*
X195822419Y-63969361D02*
X195774800Y-63874123D01*
X195774800Y-63874123D02*
X195727180Y-63826504D01*
X195727180Y-63826504D02*
X195631942Y-63778885D01*
X195631942Y-63778885D02*
X195346228Y-63778885D01*
X195346228Y-63778885D02*
X195250990Y-63826504D01*
X195250990Y-63826504D02*
X195203371Y-63874123D01*
X195203371Y-63874123D02*
X195155752Y-63969361D01*
X195155752Y-63969361D02*
X195155752Y-64112218D01*
X195155752Y-64112218D02*
X195203371Y-64207456D01*
X195203371Y-64207456D02*
X195250990Y-64255075D01*
X195250990Y-64255075D02*
X195346228Y-64302694D01*
X195346228Y-64302694D02*
X195631942Y-64302694D01*
X195631942Y-64302694D02*
X195727180Y-64255075D01*
X195727180Y-64255075D02*
X195774800Y-64207456D01*
X195774800Y-64207456D02*
X195822419Y-64112218D01*
X195822419Y-64112218D02*
X195822419Y-63969361D01*
X195155752Y-64588409D02*
X195155752Y-64969361D01*
X194822419Y-64731266D02*
X195679561Y-64731266D01*
X195679561Y-64731266D02*
X195774800Y-64778885D01*
X195774800Y-64778885D02*
X195822419Y-64874123D01*
X195822419Y-64874123D02*
X195822419Y-64969361D01*
X195822419Y-65302695D02*
X194822419Y-65302695D01*
X195822419Y-65731266D02*
X195298609Y-65731266D01*
X195298609Y-65731266D02*
X195203371Y-65683647D01*
X195203371Y-65683647D02*
X195155752Y-65588409D01*
X195155752Y-65588409D02*
X195155752Y-65445552D01*
X195155752Y-65445552D02*
X195203371Y-65350314D01*
X195203371Y-65350314D02*
X195250990Y-65302695D01*
X195774800Y-66588409D02*
X195822419Y-66493171D01*
X195822419Y-66493171D02*
X195822419Y-66302695D01*
X195822419Y-66302695D02*
X195774800Y-66207457D01*
X195774800Y-66207457D02*
X195679561Y-66159838D01*
X195679561Y-66159838D02*
X195298609Y-66159838D01*
X195298609Y-66159838D02*
X195203371Y-66207457D01*
X195203371Y-66207457D02*
X195155752Y-66302695D01*
X195155752Y-66302695D02*
X195155752Y-66493171D01*
X195155752Y-66493171D02*
X195203371Y-66588409D01*
X195203371Y-66588409D02*
X195298609Y-66636028D01*
X195298609Y-66636028D02*
X195393847Y-66636028D01*
X195393847Y-66636028D02*
X195489085Y-66159838D01*
X195822419Y-67064600D02*
X195155752Y-67064600D01*
X195346228Y-67064600D02*
X195250990Y-67112219D01*
X195250990Y-67112219D02*
X195203371Y-67159838D01*
X195203371Y-67159838D02*
X195155752Y-67255076D01*
X195155752Y-67255076D02*
X195155752Y-67350314D01*
X195536704Y-67636029D02*
X195536704Y-68112219D01*
X195822419Y-67540791D02*
X194822419Y-67874124D01*
X194822419Y-67874124D02*
X195822419Y-68207457D01*
X195155752Y-68969362D02*
X195822419Y-68969362D01*
X195155752Y-68540791D02*
X195679561Y-68540791D01*
X195679561Y-68540791D02*
X195774800Y-68588410D01*
X195774800Y-68588410D02*
X195822419Y-68683648D01*
X195822419Y-68683648D02*
X195822419Y-68826505D01*
X195822419Y-68826505D02*
X195774800Y-68921743D01*
X195774800Y-68921743D02*
X195727180Y-68969362D01*
X195155752Y-69302696D02*
X195155752Y-69683648D01*
X194822419Y-69445553D02*
X195679561Y-69445553D01*
X195679561Y-69445553D02*
X195774800Y-69493172D01*
X195774800Y-69493172D02*
X195822419Y-69588410D01*
X195822419Y-69588410D02*
X195822419Y-69683648D01*
X195822419Y-70016982D02*
X194822419Y-70016982D01*
X195822419Y-70445553D02*
X195298609Y-70445553D01*
X195298609Y-70445553D02*
X195203371Y-70397934D01*
X195203371Y-70397934D02*
X195155752Y-70302696D01*
X195155752Y-70302696D02*
X195155752Y-70159839D01*
X195155752Y-70159839D02*
X195203371Y-70064601D01*
X195203371Y-70064601D02*
X195250990Y-70016982D01*
X195822419Y-70921744D02*
X194822419Y-70921744D01*
X195822419Y-71493172D02*
X195250990Y-71064601D01*
X194822419Y-71493172D02*
X195393847Y-70921744D01*
X195774800Y-72302696D02*
X195822419Y-72207458D01*
X195822419Y-72207458D02*
X195822419Y-72016982D01*
X195822419Y-72016982D02*
X195774800Y-71921744D01*
X195774800Y-71921744D02*
X195679561Y-71874125D01*
X195679561Y-71874125D02*
X195298609Y-71874125D01*
X195298609Y-71874125D02*
X195203371Y-71921744D01*
X195203371Y-71921744D02*
X195155752Y-72016982D01*
X195155752Y-72016982D02*
X195155752Y-72207458D01*
X195155752Y-72207458D02*
X195203371Y-72302696D01*
X195203371Y-72302696D02*
X195298609Y-72350315D01*
X195298609Y-72350315D02*
X195393847Y-72350315D01*
X195393847Y-72350315D02*
X195489085Y-71874125D01*
X195155752Y-72683649D02*
X195822419Y-72921744D01*
X195155752Y-73159839D02*
X195822419Y-72921744D01*
X195822419Y-72921744D02*
X196060514Y-72826506D01*
X196060514Y-72826506D02*
X196108133Y-72778887D01*
X196108133Y-72778887D02*
X196155752Y-72683649D01*
X195155752Y-74207459D02*
X195822419Y-74445554D01*
X195822419Y-74445554D02*
X195155752Y-74683649D01*
X195822419Y-75588411D02*
X195822419Y-75016983D01*
X195822419Y-75302697D02*
X194822419Y-75302697D01*
X194822419Y-75302697D02*
X194965276Y-75207459D01*
X194965276Y-75207459D02*
X195060514Y-75112221D01*
X195060514Y-75112221D02*
X195108133Y-75016983D01*
D11*
%TO.C,G\u002A\u002A\u002A*%
G36*
X189465184Y-72892704D02*
G01*
X189564146Y-72929465D01*
X189626358Y-72957460D01*
X189661855Y-73002585D01*
X189642964Y-73070639D01*
X189570055Y-73177107D01*
X189529279Y-73226559D01*
X189453124Y-73285497D01*
X189370429Y-73294768D01*
X189350053Y-73291808D01*
X189283137Y-73257941D01*
X189257034Y-73174431D01*
X189255994Y-73164056D01*
X189262073Y-73047691D01*
X189294148Y-72945637D01*
X189342766Y-72878460D01*
X189398472Y-72866727D01*
X189465184Y-72892704D01*
G37*
G36*
X190286601Y-73113975D02*
G01*
X190314286Y-73122539D01*
X190396000Y-73160994D01*
X190428565Y-73199317D01*
X190427231Y-73215151D01*
X190390334Y-73316005D01*
X190318024Y-73430176D01*
X190230677Y-73529521D01*
X190148670Y-73585899D01*
X190101677Y-73600110D01*
X190032736Y-73595338D01*
X189968923Y-73534767D01*
X189934849Y-73489449D01*
X189902957Y-73416596D01*
X189909898Y-73333424D01*
X189954402Y-73211679D01*
X190000132Y-73125003D01*
X190057841Y-73083218D01*
X190146784Y-73081468D01*
X190286601Y-73113975D01*
G37*
G36*
X189584299Y-62753751D02*
G01*
X189604431Y-62821566D01*
X189627608Y-62925812D01*
X189636649Y-62972092D01*
X189655224Y-63069001D01*
X189664546Y-63120458D01*
X189648391Y-63138451D01*
X189574643Y-63163387D01*
X189459390Y-63186234D01*
X189322618Y-63204472D01*
X189184315Y-63215584D01*
X189064466Y-63217049D01*
X188983059Y-63206349D01*
X188961021Y-63195183D01*
X188959478Y-63169747D01*
X188999349Y-63126116D01*
X189088177Y-63056687D01*
X189233507Y-62953853D01*
X189339260Y-62882005D01*
X189458268Y-62805282D01*
X189542520Y-62756019D01*
X189578423Y-62742545D01*
X189584299Y-62753751D01*
G37*
G36*
X193623203Y-57080294D02*
G01*
X193623203Y-57322864D01*
X193100373Y-57348782D01*
X192863874Y-57362691D01*
X192526946Y-57388454D01*
X192182599Y-57420582D01*
X191851691Y-57456915D01*
X191555081Y-57495299D01*
X191313626Y-57533575D01*
X191258527Y-57543700D01*
X191145265Y-57568702D01*
X191081584Y-57597310D01*
X191048644Y-57641309D01*
X191027604Y-57712485D01*
X191020758Y-57754797D01*
X191010317Y-57875900D01*
X191001573Y-58046810D01*
X190995286Y-58251203D01*
X190992215Y-58472754D01*
X190994297Y-58730784D01*
X191007484Y-59028648D01*
X191034385Y-59323532D01*
X191077152Y-59630433D01*
X191137935Y-59964347D01*
X191218885Y-60340272D01*
X191322154Y-60773203D01*
X191360157Y-60925792D01*
X191404244Y-61098896D01*
X191450947Y-61277427D01*
X191502369Y-61468885D01*
X191560613Y-61680771D01*
X191584043Y-61764422D01*
X191627783Y-61920585D01*
X191705981Y-62195829D01*
X191797310Y-62514002D01*
X191903874Y-62882606D01*
X192027775Y-63309142D01*
X192171116Y-63801109D01*
X192300935Y-64258081D01*
X192487184Y-64971501D01*
X192638972Y-65641123D01*
X192758461Y-66280747D01*
X192847813Y-66904174D01*
X192909190Y-67525203D01*
X192944754Y-68157635D01*
X192956668Y-68815269D01*
X192956653Y-68954513D01*
X192954072Y-69276008D01*
X192945947Y-69543476D01*
X192929939Y-69772861D01*
X192903707Y-69980108D01*
X192864910Y-70181160D01*
X192811211Y-70391961D01*
X192740267Y-70628455D01*
X192649740Y-70906587D01*
X192622806Y-70986105D01*
X192390650Y-71582477D01*
X192096150Y-72209851D01*
X191742789Y-72862740D01*
X191334046Y-73535662D01*
X190873404Y-74223131D01*
X190364343Y-74919663D01*
X189810346Y-75619774D01*
X189214892Y-76317978D01*
X188851197Y-76729219D01*
X188841026Y-75795149D01*
X188840771Y-75772206D01*
X188835425Y-75441747D01*
X188827759Y-75186324D01*
X188817723Y-75005018D01*
X188805265Y-74896910D01*
X188790337Y-74861078D01*
X188773615Y-74866357D01*
X188696579Y-74900621D01*
X188567790Y-74962509D01*
X188397287Y-75047077D01*
X188195109Y-75149381D01*
X187971296Y-75264476D01*
X187841563Y-75331295D01*
X187631445Y-75437687D01*
X187449930Y-75527297D01*
X187306689Y-75595463D01*
X187211396Y-75637526D01*
X187173722Y-75648822D01*
X187176884Y-75626955D01*
X187208937Y-75550027D01*
X187266930Y-75432458D01*
X187343878Y-75289016D01*
X187358578Y-75262420D01*
X187593094Y-74806653D01*
X187824445Y-74301772D01*
X188042322Y-73772731D01*
X188220844Y-73286851D01*
X188870209Y-73286851D01*
X188870821Y-73343853D01*
X188880990Y-73445351D01*
X188911385Y-73507689D01*
X188971865Y-73557070D01*
X189007573Y-73576425D01*
X189149462Y-73614517D01*
X189318162Y-73620923D01*
X189480935Y-73593312D01*
X189515175Y-73584370D01*
X189577590Y-73592345D01*
X189622004Y-73659450D01*
X189690577Y-73745128D01*
X189813167Y-73827841D01*
X189960588Y-73887532D01*
X190106361Y-73910479D01*
X190112209Y-73910452D01*
X190289279Y-73879013D01*
X190442405Y-73785289D01*
X190576632Y-73624863D01*
X190697003Y-73393318D01*
X190715189Y-73346030D01*
X190755191Y-73196636D01*
X190770910Y-73061294D01*
X190770414Y-72902844D01*
X190076973Y-72702480D01*
X189855847Y-72640126D01*
X189649806Y-72584966D01*
X189476040Y-72541443D01*
X189348077Y-72512944D01*
X189279443Y-72502855D01*
X189194995Y-72531845D01*
X189099801Y-72622086D01*
X189011577Y-72758318D01*
X188938472Y-72924930D01*
X188888632Y-73106311D01*
X188870209Y-73286851D01*
X188220844Y-73286851D01*
X188236410Y-73244486D01*
X188396399Y-72741991D01*
X188557639Y-72122846D01*
X188583255Y-71992536D01*
X189370981Y-71992536D01*
X189385042Y-72047208D01*
X189443417Y-72125077D01*
X189552898Y-72192346D01*
X189721778Y-72253546D01*
X189958353Y-72313204D01*
X190000310Y-72322242D01*
X190335176Y-72375670D01*
X190630164Y-72388499D01*
X190878782Y-72361369D01*
X191074536Y-72294920D01*
X191210934Y-72189790D01*
X191257924Y-72123987D01*
X191293207Y-72023377D01*
X191301331Y-71882786D01*
X191291638Y-71744778D01*
X191233615Y-71541096D01*
X191118961Y-71381887D01*
X190942514Y-71258168D01*
X190914557Y-71244799D01*
X190787704Y-71196234D01*
X190615293Y-71140931D01*
X190416925Y-71084067D01*
X190212200Y-71030824D01*
X190020720Y-70986381D01*
X189862086Y-70955916D01*
X189755899Y-70944611D01*
X189651853Y-70950745D01*
X189587809Y-70978795D01*
X189546987Y-71041282D01*
X189539704Y-71058578D01*
X189527674Y-71126750D01*
X189553437Y-71186037D01*
X189624406Y-71240895D01*
X189747993Y-71295782D01*
X189931613Y-71355153D01*
X190182677Y-71423467D01*
X190246467Y-71440146D01*
X190441681Y-71493470D01*
X190612757Y-71543465D01*
X190743131Y-71585160D01*
X190816242Y-71613584D01*
X190841981Y-71628321D01*
X190925346Y-71710427D01*
X190948898Y-71803705D01*
X190906678Y-71889943D01*
X190851640Y-71918273D01*
X190728192Y-71940535D01*
X190560506Y-71947640D01*
X190365483Y-71939770D01*
X190160026Y-71917104D01*
X189961038Y-71879825D01*
X189954606Y-71878323D01*
X189720673Y-71832457D01*
X189550380Y-71819983D01*
X189438692Y-71841864D01*
X189380571Y-71899061D01*
X189370981Y-71992536D01*
X188583255Y-71992536D01*
X188710522Y-71345131D01*
X188808357Y-70573923D01*
X188846634Y-69875559D01*
X189743596Y-69875559D01*
X189755899Y-69922476D01*
X189768878Y-69971971D01*
X189852152Y-70047594D01*
X189894220Y-70066005D01*
X190038822Y-70109349D01*
X190236805Y-70151612D01*
X190472385Y-70190068D01*
X190729779Y-70221992D01*
X190993203Y-70244658D01*
X191004285Y-70245390D01*
X191189179Y-70260471D01*
X191310372Y-70277886D01*
X191379626Y-70300030D01*
X191408700Y-70329300D01*
X191411785Y-70346725D01*
X191408610Y-70433028D01*
X191391978Y-70564319D01*
X191364253Y-70719830D01*
X191347369Y-70809319D01*
X191324963Y-70994653D01*
X191334049Y-71119032D01*
X191375773Y-71188919D01*
X191451282Y-71210778D01*
X191528193Y-71188226D01*
X191595676Y-71113937D01*
X191657476Y-70979845D01*
X191718570Y-70777887D01*
X191726055Y-70748759D01*
X191772328Y-70540769D01*
X191805237Y-70342432D01*
X191823060Y-70169661D01*
X191824075Y-70038366D01*
X191806562Y-69964462D01*
X191767417Y-69943561D01*
X191659390Y-69915838D01*
X191494154Y-69886901D01*
X191281848Y-69858792D01*
X191078160Y-69834361D01*
X190870931Y-69808112D01*
X190690906Y-69783959D01*
X190562275Y-69765052D01*
X190518950Y-69758503D01*
X190329271Y-69738104D01*
X190143826Y-69729595D01*
X189980364Y-69732783D01*
X189856635Y-69747473D01*
X189790388Y-69773473D01*
X189781794Y-69782706D01*
X189743596Y-69875559D01*
X188846634Y-69875559D01*
X188849532Y-69822679D01*
X188832433Y-69104851D01*
X188816547Y-68907516D01*
X189852206Y-68907516D01*
X189886120Y-69070080D01*
X189988113Y-69218323D01*
X190042622Y-69268864D01*
X190143238Y-69330449D01*
X190143826Y-69330540D01*
X190254281Y-69347605D01*
X190335045Y-69343128D01*
X190380790Y-69317771D01*
X190391167Y-69256891D01*
X190377068Y-69168776D01*
X190337119Y-69062001D01*
X190306360Y-68952299D01*
X190334158Y-68851227D01*
X190414870Y-68770282D01*
X190537484Y-68710990D01*
X190690988Y-68674881D01*
X190864370Y-68663483D01*
X191046617Y-68678323D01*
X191226717Y-68720931D01*
X191393658Y-68792834D01*
X191536428Y-68895561D01*
X191547932Y-68906383D01*
X191616752Y-68982528D01*
X191639027Y-69051662D01*
X191627306Y-69148753D01*
X191625930Y-69155742D01*
X191605280Y-69286514D01*
X191593939Y-69404641D01*
X191592951Y-69448208D01*
X191605615Y-69496666D01*
X191654102Y-69515523D01*
X191758514Y-69518712D01*
X191773494Y-69518658D01*
X191880677Y-69509301D01*
X191949917Y-69471951D01*
X192015176Y-69389512D01*
X192061613Y-69306054D01*
X192093344Y-69188400D01*
X192102245Y-69027605D01*
X192083484Y-68833243D01*
X192015103Y-68664603D01*
X191888267Y-68527811D01*
X191694280Y-68409697D01*
X191683491Y-68404411D01*
X191593863Y-68362923D01*
X191513414Y-68334457D01*
X191425099Y-68316569D01*
X191311874Y-68306816D01*
X191156693Y-68302756D01*
X190942514Y-68301946D01*
X190750704Y-68302663D01*
X190587401Y-68306524D01*
X190469218Y-68315714D01*
X190379628Y-68332408D01*
X190302102Y-68358780D01*
X190220114Y-68397006D01*
X190125558Y-68452050D01*
X189975262Y-68586686D01*
X189883032Y-68742447D01*
X189852206Y-68907516D01*
X188816547Y-68907516D01*
X188803442Y-68744719D01*
X188739479Y-68215946D01*
X188648944Y-67716274D01*
X188527282Y-67228312D01*
X188369935Y-66734668D01*
X188172347Y-66217952D01*
X188079690Y-66004960D01*
X189219069Y-66004960D01*
X189219578Y-66101328D01*
X189232178Y-66178554D01*
X189279443Y-66272229D01*
X189284879Y-66283003D01*
X189383835Y-66349925D01*
X189537739Y-66384003D01*
X189755283Y-66389920D01*
X189787226Y-66388980D01*
X189948649Y-66381323D01*
X190088602Y-66370350D01*
X190179799Y-66358107D01*
X190227798Y-66349675D01*
X190250593Y-66356302D01*
X190236883Y-66389580D01*
X190182108Y-66459674D01*
X190081711Y-66576744D01*
X190059289Y-66602672D01*
X189925166Y-66761672D01*
X189834486Y-66879709D01*
X189779414Y-66969244D01*
X189752117Y-67042738D01*
X189744760Y-67112652D01*
X189744854Y-67126208D01*
X189754949Y-67187707D01*
X189797187Y-67213214D01*
X189893441Y-67218263D01*
X190000859Y-67198975D01*
X190155257Y-67123890D01*
X190341932Y-66989678D01*
X190565014Y-66793730D01*
X190681824Y-66684128D01*
X190894657Y-66778252D01*
X190918853Y-66788830D01*
X190942514Y-66797763D01*
X191180552Y-66887627D01*
X191425636Y-66952977D01*
X191642154Y-66983140D01*
X191818155Y-66976371D01*
X191941688Y-66930928D01*
X192000007Y-66867596D01*
X192023195Y-66750314D01*
X192021179Y-66698107D01*
X192009106Y-66612912D01*
X191977173Y-66549776D01*
X191914344Y-66501809D01*
X191809584Y-66462124D01*
X191651861Y-66423829D01*
X191430140Y-66380037D01*
X191328418Y-66360684D01*
X191146004Y-66324997D01*
X191022088Y-66297731D01*
X190945376Y-66275089D01*
X190904568Y-66253273D01*
X190888368Y-66228486D01*
X190885478Y-66196929D01*
X190897273Y-66164133D01*
X190966526Y-66112741D01*
X191104116Y-66057359D01*
X191139974Y-66044518D01*
X191335045Y-65944144D01*
X191525138Y-65787999D01*
X191629717Y-65682520D01*
X191690133Y-65604869D01*
X191714893Y-65538530D01*
X191715257Y-65464338D01*
X191705171Y-65409547D01*
X191662846Y-65343064D01*
X191584043Y-65318862D01*
X191462346Y-65337333D01*
X191291340Y-65398864D01*
X191064609Y-65503846D01*
X190989505Y-65540285D01*
X190704707Y-65662575D01*
X190434950Y-65747106D01*
X190150297Y-65801845D01*
X189820807Y-65834756D01*
X189743760Y-65840916D01*
X189572916Y-65860616D01*
X189427843Y-65885098D01*
X189333650Y-65910460D01*
X189252008Y-65951437D01*
X189219069Y-66004960D01*
X188079690Y-66004960D01*
X187929959Y-65660772D01*
X187732532Y-65217663D01*
X187650501Y-65018869D01*
X188833546Y-65018869D01*
X188833832Y-65129526D01*
X188849806Y-65202964D01*
X188888595Y-65263572D01*
X188957327Y-65335741D01*
X189051608Y-65418594D01*
X189141261Y-65459196D01*
X189258053Y-65469162D01*
X189335894Y-65464367D01*
X189458084Y-65423669D01*
X189515092Y-65346901D01*
X189503905Y-65240656D01*
X189421510Y-65111526D01*
X189365206Y-65043184D01*
X189334057Y-64978849D01*
X189353020Y-64917445D01*
X189422163Y-64828967D01*
X189497584Y-64759815D01*
X189656326Y-64663278D01*
X189856450Y-64575462D01*
X190077560Y-64502770D01*
X190299259Y-64451605D01*
X190501152Y-64428370D01*
X190662842Y-64439469D01*
X190669661Y-64441019D01*
X190833275Y-64491046D01*
X190934222Y-64559152D01*
X190985361Y-64659315D01*
X190999550Y-64805514D01*
X191014166Y-64904516D01*
X191073098Y-64973512D01*
X191177067Y-65009130D01*
X191274874Y-64987699D01*
X191382714Y-64901727D01*
X191448971Y-64811140D01*
X191493952Y-64655155D01*
X191483068Y-64483401D01*
X191420463Y-64311811D01*
X191310283Y-64156319D01*
X191156672Y-64032855D01*
X191152824Y-64030601D01*
X191067349Y-63984999D01*
X190984053Y-63954493D01*
X190883379Y-63935295D01*
X190745770Y-63923615D01*
X190551669Y-63915667D01*
X190387075Y-63911729D01*
X190224895Y-63914157D01*
X190091839Y-63927687D01*
X189961736Y-63955287D01*
X189808413Y-63999923D01*
X189714927Y-64031452D01*
X189472044Y-64134870D01*
X189250470Y-64258534D01*
X189068120Y-64391609D01*
X188942909Y-64523264D01*
X188931926Y-64539180D01*
X188881975Y-64636136D01*
X188852869Y-64756659D01*
X188837819Y-64926816D01*
X188833546Y-65018869D01*
X187650501Y-65018869D01*
X187438242Y-64504483D01*
X187194037Y-63835063D01*
X187025770Y-63291909D01*
X188230989Y-63291909D01*
X188234309Y-63325058D01*
X188255638Y-63404389D01*
X188308439Y-63461220D01*
X188412472Y-63520434D01*
X188431878Y-63530036D01*
X188511515Y-63563508D01*
X188597086Y-63585541D01*
X188706112Y-63598433D01*
X188856112Y-63604482D01*
X189064607Y-63605988D01*
X189154643Y-63605230D01*
X189483568Y-63590389D01*
X189806952Y-63558412D01*
X190113052Y-63511693D01*
X190387075Y-63453281D01*
X190390126Y-63452631D01*
X190626430Y-63383620D01*
X190810221Y-63307059D01*
X190929758Y-63225343D01*
X190991008Y-63139466D01*
X191033769Y-63022458D01*
X191042783Y-62911005D01*
X191012225Y-62832834D01*
X191004485Y-62826731D01*
X190925684Y-62808259D01*
X190799392Y-62812898D01*
X190646010Y-62838678D01*
X190485940Y-62883631D01*
X190382088Y-62917945D01*
X190293769Y-62943892D01*
X190256884Y-62950173D01*
X190250507Y-62919837D01*
X190238361Y-62832407D01*
X190223960Y-62709541D01*
X190223458Y-62704933D01*
X190211991Y-62578195D01*
X190215906Y-62505250D01*
X190240304Y-62465116D01*
X190290288Y-62436815D01*
X190320027Y-62422422D01*
X190459205Y-62331255D01*
X190572196Y-62220033D01*
X190649026Y-62103181D01*
X190679724Y-61995124D01*
X190654316Y-61910285D01*
X190649687Y-61904904D01*
X190599440Y-61867433D01*
X190530841Y-61854562D01*
X190436181Y-61868879D01*
X190307752Y-61912971D01*
X190137846Y-61989425D01*
X189918755Y-62100827D01*
X189642769Y-62249764D01*
X189608382Y-62268637D01*
X189375170Y-62396239D01*
X189147498Y-62520190D01*
X188940629Y-62632223D01*
X188769825Y-62724066D01*
X188650349Y-62787452D01*
X188602658Y-62812952D01*
X188419477Y-62927915D01*
X188301628Y-63039860D01*
X188241376Y-63158091D01*
X188230989Y-63291909D01*
X187025770Y-63291909D01*
X186998103Y-63202600D01*
X186848623Y-62600292D01*
X186743782Y-62021339D01*
X186681763Y-61458938D01*
X186660752Y-60906287D01*
X186660740Y-60898625D01*
X186676567Y-60399439D01*
X186696327Y-60224640D01*
X187615418Y-60224640D01*
X187616154Y-60262160D01*
X187637288Y-60376586D01*
X187699726Y-60459643D01*
X187819734Y-60536124D01*
X187903507Y-60574306D01*
X188006027Y-60601665D01*
X188137865Y-60615229D01*
X188322262Y-60618823D01*
X188667878Y-60618638D01*
X188750032Y-60830504D01*
X188785806Y-60926593D01*
X188819267Y-61026729D01*
X188832185Y-61080507D01*
X188821119Y-61095251D01*
X188755343Y-61139470D01*
X188643551Y-61199861D01*
X188500974Y-61267812D01*
X188461256Y-61285927D01*
X188220247Y-61409442D01*
X188051431Y-61524556D01*
X187952116Y-61633446D01*
X187919610Y-61738293D01*
X187938686Y-61844883D01*
X188013669Y-61959700D01*
X188130352Y-62025000D01*
X188166105Y-62027149D01*
X188278004Y-62013821D01*
X188442794Y-61981817D01*
X188648275Y-61934560D01*
X188882245Y-61875474D01*
X189132504Y-61807981D01*
X189386853Y-61735506D01*
X189633090Y-61661472D01*
X189859015Y-61589301D01*
X190052428Y-61522418D01*
X190201128Y-61464245D01*
X190292914Y-61418206D01*
X190375836Y-61345526D01*
X190450146Y-61244745D01*
X190484894Y-61163935D01*
X190499718Y-61031132D01*
X190445487Y-60928015D01*
X190400118Y-60894809D01*
X190325943Y-60874358D01*
X190217699Y-60874986D01*
X190062468Y-60896964D01*
X189847328Y-60940564D01*
X189777135Y-60955085D01*
X189639544Y-60978221D01*
X189540098Y-60987485D01*
X189496670Y-60980823D01*
X189494129Y-60976370D01*
X189466069Y-60913421D01*
X189424393Y-60808392D01*
X189377448Y-60683831D01*
X189333582Y-60562286D01*
X189301141Y-60466303D01*
X189288472Y-60418431D01*
X189295876Y-60407939D01*
X189354129Y-60364959D01*
X189457736Y-60301496D01*
X189591545Y-60227115D01*
X189785621Y-60111906D01*
X189937923Y-59987400D01*
X190026446Y-59861898D01*
X190057241Y-59728929D01*
X190054501Y-59669906D01*
X190019548Y-59578441D01*
X189941209Y-59523371D01*
X189814623Y-59504348D01*
X189634929Y-59521023D01*
X189397264Y-59573047D01*
X189096766Y-59660072D01*
X188970558Y-59698078D01*
X188713427Y-59769519D01*
X188446327Y-59837714D01*
X188210211Y-59891951D01*
X188106412Y-59914583D01*
X187903770Y-59966241D01*
X187763057Y-60017647D01*
X187674564Y-60074229D01*
X187628587Y-60141417D01*
X187615418Y-60224640D01*
X186696327Y-60224640D01*
X186726012Y-59962040D01*
X186810193Y-59579558D01*
X186930222Y-59245119D01*
X186934404Y-59235627D01*
X186972373Y-59139278D01*
X186976293Y-59093042D01*
X186947861Y-59081138D01*
X186896907Y-59062226D01*
X186900536Y-59011971D01*
X186954405Y-58942856D01*
X187052404Y-58867369D01*
X187182020Y-58789812D01*
X187437953Y-58651216D01*
X187746275Y-58497248D01*
X188094857Y-58333088D01*
X188471565Y-58163918D01*
X188864268Y-57994919D01*
X189260833Y-57831273D01*
X189649130Y-57678161D01*
X189814623Y-57616355D01*
X190017026Y-57540764D01*
X190352390Y-57424264D01*
X190530841Y-57368757D01*
X190643088Y-57333842D01*
X190714560Y-57313688D01*
X191064071Y-57222462D01*
X191438027Y-57135324D01*
X191822516Y-57054762D01*
X192203625Y-56983266D01*
X192567443Y-56923325D01*
X192900056Y-56877429D01*
X193187552Y-56848065D01*
X193416018Y-56837724D01*
X193623203Y-56837724D01*
X193623203Y-57080294D01*
G37*
%TD*%
M02*
