M48
; DRILL file {KiCad 9.0.5} date 2025-11-01T21:25:25+1100
; FORMAT={-:-/ absolute / metric / decimal}
; #@! TF.CreationDate,2025-11-01T21:25:25+11:00
; #@! TF.GenerationSoftware,Kicad,Pcbnew,9.0.5
; #@! TF.FileFunction,Plated,1,2,PTH
FMAT,2
METRIC
; #@! TA.AperFunction,Plated,PTH,ComponentDrill
T1C0.250
; #@! TA.AperFunction,Plated,PTH,ViaDrill
T2C0.300
; #@! TA.AperFunction,Plated,PTH,ComponentDrill
T3C0.700
%
G90
G05
T1
X189.25Y-73.9
X189.25Y-75.275
X189.25Y-76.65
X190.625Y-73.9
X190.625Y-75.275
X190.625Y-76.65
X192.0Y-73.9
X192.0Y-75.275
X192.0Y-76.65
T2
X185.375Y-78.675
X186.95Y-62.5
X190.812Y-66.188
X191.5Y-61.7
X191.5Y-66.8
X191.875Y-60.225
X193.025Y-70.85
X193.55Y-63.475
X195.08Y-80.45
T3
G00X184.65Y-52.975
M15
G01X184.65Y-51.175
M16
G05
G00X196.35Y-52.975
M15
G01X196.35Y-51.175
M16
G05
M30
