%TF.GenerationSoftware,KiCad,Pcbnew,9.0.5*%
%TF.CreationDate,2025-11-01T21:25:21+11:00*%
%TF.ProjectId,YetAnotherAuthKey,59657441-6e6f-4746-9865-72417574684b,rev?*%
%TF.SameCoordinates,Original*%
%TF.FileFunction,Copper,L1,Top*%
%TF.FilePolarity,Positive*%
%FSLAX46Y46*%
G04 Gerber Fmt 4.6, Leading zero omitted, Abs format (unit mm)*
G04 Created by KiCad (PCBNEW 9.0.5) date 2025-11-01 21:25:21*
%MOMM*%
%LPD*%
G01*
G04 APERTURE LIST*
G04 Aperture macros list*
%AMRoundRect*
0 Rectangle with rounded corners*
0 $1 Rounding radius*
0 $2 $3 $4 $5 $6 $7 $8 $9 X,Y pos of 4 corners*
0 Add a 4 corners polygon primitive as box body*
4,1,4,$2,$3,$4,$5,$6,$7,$8,$9,$2,$3,0*
0 Add four circle primitives for the rounded corners*
1,1,$1+$1,$2,$3*
1,1,$1+$1,$4,$5*
1,1,$1+$1,$6,$7*
1,1,$1+$1,$8,$9*
0 Add four rect primitives between the rounded corners*
20,1,$1+$1,$2,$3,$4,$5,0*
20,1,$1+$1,$4,$5,$6,$7,0*
20,1,$1+$1,$6,$7,$8,$9,0*
20,1,$1+$1,$8,$9,$2,$3,0*%
%AMFreePoly0*
4,1,18,-0.437500,0.050000,-0.433694,0.069134,-0.422855,0.085355,-0.406634,0.096194,-0.387500,0.100000,0.387500,0.100000,0.437500,0.050000,0.437500,-0.050000,0.433694,-0.069134,0.422855,-0.085355,0.406634,-0.096194,0.387500,-0.100000,-0.387500,-0.100000,-0.406634,-0.096194,-0.422855,-0.085355,-0.433694,-0.069134,-0.437500,-0.050000,-0.437500,0.050000,-0.437500,0.050000,$1*%
%AMFreePoly1*
4,1,18,-0.437500,0.050000,-0.433694,0.069134,-0.422855,0.085355,-0.406634,0.096194,-0.387500,0.100000,0.387500,0.100000,0.406634,0.096194,0.422855,0.085355,0.433694,0.069134,0.437500,0.050000,0.437500,-0.050000,0.387500,-0.100000,-0.387500,-0.100000,-0.406634,-0.096194,-0.422855,-0.085355,-0.433694,-0.069134,-0.437500,-0.050000,-0.437500,0.050000,-0.437500,0.050000,$1*%
%AMFreePoly2*
4,1,18,-0.100000,0.387500,-0.050000,0.437500,0.050000,0.437500,0.069134,0.433694,0.085355,0.422855,0.096194,0.406634,0.100000,0.387500,0.100000,-0.387500,0.096194,-0.406634,0.085355,-0.422855,0.069134,-0.433694,0.050000,-0.437500,-0.050000,-0.437500,-0.069134,-0.433694,-0.085355,-0.422855,-0.096194,-0.406634,-0.100000,-0.387500,-0.100000,0.387500,-0.100000,0.387500,$1*%
%AMFreePoly3*
4,1,18,-0.100000,0.387500,-0.096194,0.406634,-0.085355,0.422855,-0.069134,0.433694,-0.050000,0.437500,0.050000,0.437500,0.100000,0.387500,0.100000,-0.387500,0.096194,-0.406634,0.085355,-0.422855,0.069134,-0.433694,0.050000,-0.437500,-0.050000,-0.437500,-0.069134,-0.433694,-0.085355,-0.422855,-0.096194,-0.406634,-0.100000,-0.387500,-0.100000,0.387500,-0.100000,0.387500,$1*%
%AMFreePoly4*
4,1,18,-0.437500,0.050000,-0.433694,0.069134,-0.422855,0.085355,-0.406634,0.096194,-0.387500,0.100000,0.387500,0.100000,0.406634,0.096194,0.422855,0.085355,0.433694,0.069134,0.437500,0.050000,0.437500,-0.050000,0.433694,-0.069134,0.422855,-0.085355,0.406634,-0.096194,0.387500,-0.100000,-0.387500,-0.100000,-0.437500,-0.050000,-0.437500,0.050000,-0.437500,0.050000,$1*%
%AMFreePoly5*
4,1,18,-0.437500,0.050000,-0.387500,0.100000,0.387500,0.100000,0.406634,0.096194,0.422855,0.085355,0.433694,0.069134,0.437500,0.050000,0.437500,-0.050000,0.433694,-0.069134,0.422855,-0.085355,0.406634,-0.096194,0.387500,-0.100000,-0.387500,-0.100000,-0.406634,-0.096194,-0.422855,-0.085355,-0.433694,-0.069134,-0.437500,-0.050000,-0.437500,0.050000,-0.437500,0.050000,$1*%
%AMFreePoly6*
4,1,18,-0.100000,0.387500,-0.096194,0.406634,-0.085355,0.422855,-0.069134,0.433694,-0.050000,0.437500,0.050000,0.437500,0.069134,0.433694,0.085355,0.422855,0.096194,0.406634,0.100000,0.387500,0.100000,-0.387500,0.050000,-0.437500,-0.050000,-0.437500,-0.069134,-0.433694,-0.085355,-0.422855,-0.096194,-0.406634,-0.100000,-0.387500,-0.100000,0.387500,-0.100000,0.387500,$1*%
%AMFreePoly7*
4,1,18,-0.100000,0.387500,-0.096194,0.406634,-0.085355,0.422855,-0.069134,0.433694,-0.050000,0.437500,0.050000,0.437500,0.069134,0.433694,0.085355,0.422855,0.096194,0.406634,0.100000,0.387500,0.100000,-0.387500,0.096194,-0.406634,0.085355,-0.422855,0.069134,-0.433694,0.050000,-0.437500,-0.050000,-0.437500,-0.100000,-0.387500,-0.100000,0.387500,-0.100000,0.387500,$1*%
G04 Aperture macros list end*
%TA.AperFunction,SMDPad,CuDef*%
%ADD10RoundRect,0.135000X0.185000X-0.135000X0.185000X0.135000X-0.185000X0.135000X-0.185000X-0.135000X0*%
%TD*%
%TA.AperFunction,SMDPad,CuDef*%
%ADD11RoundRect,0.140000X-0.140000X-0.170000X0.140000X-0.170000X0.140000X0.170000X-0.140000X0.170000X0*%
%TD*%
%TA.AperFunction,SMDPad,CuDef*%
%ADD12RoundRect,0.225000X0.250000X-0.225000X0.250000X0.225000X-0.250000X0.225000X-0.250000X-0.225000X0*%
%TD*%
%TA.AperFunction,SMDPad,CuDef*%
%ADD13RoundRect,0.200000X-0.800000X0.200000X-0.800000X-0.200000X0.800000X-0.200000X0.800000X0.200000X0*%
%TD*%
%TA.AperFunction,SMDPad,CuDef*%
%ADD14RoundRect,0.140000X0.170000X-0.140000X0.170000X0.140000X-0.170000X0.140000X-0.170000X-0.140000X0*%
%TD*%
%TA.AperFunction,SMDPad,CuDef*%
%ADD15RoundRect,0.150000X0.150000X-0.587500X0.150000X0.587500X-0.150000X0.587500X-0.150000X-0.587500X0*%
%TD*%
%TA.AperFunction,SMDPad,CuDef*%
%ADD16RoundRect,0.140000X0.140000X0.170000X-0.140000X0.170000X-0.140000X-0.170000X0.140000X-0.170000X0*%
%TD*%
%TA.AperFunction,SMDPad,CuDef*%
%ADD17RoundRect,0.225000X-0.250000X0.225000X-0.250000X-0.225000X0.250000X-0.225000X0.250000X0.225000X0*%
%TD*%
%TA.AperFunction,SMDPad,CuDef*%
%ADD18RoundRect,0.250000X-0.450000X-0.350000X0.450000X-0.350000X0.450000X0.350000X-0.450000X0.350000X0*%
%TD*%
%TA.AperFunction,SMDPad,CuDef*%
%ADD19RoundRect,0.300000X0.300000X-0.700000X0.300000X0.700000X-0.300000X0.700000X-0.300000X-0.700000X0*%
%TD*%
%TA.AperFunction,HeatsinkPad*%
%ADD20O,1.300000X3.200000*%
%TD*%
%TA.AperFunction,SMDPad,CuDef*%
%ADD21RoundRect,0.140000X-0.170000X0.140000X-0.170000X-0.140000X0.170000X-0.140000X0.170000X0.140000X0*%
%TD*%
%TA.AperFunction,SMDPad,CuDef*%
%ADD22RoundRect,0.135000X0.135000X0.185000X-0.135000X0.185000X-0.135000X-0.185000X0.135000X-0.185000X0*%
%TD*%
%TA.AperFunction,SMDPad,CuDef*%
%ADD23RoundRect,0.135000X-0.135000X-0.185000X0.135000X-0.185000X0.135000X0.185000X-0.135000X0.185000X0*%
%TD*%
%TA.AperFunction,SMDPad,CuDef*%
%ADD24FreePoly0,0.000000*%
%TD*%
%TA.AperFunction,SMDPad,CuDef*%
%ADD25RoundRect,0.050000X-0.387500X-0.050000X0.387500X-0.050000X0.387500X0.050000X-0.387500X0.050000X0*%
%TD*%
%TA.AperFunction,SMDPad,CuDef*%
%ADD26FreePoly1,0.000000*%
%TD*%
%TA.AperFunction,SMDPad,CuDef*%
%ADD27FreePoly2,0.000000*%
%TD*%
%TA.AperFunction,SMDPad,CuDef*%
%ADD28RoundRect,0.050000X-0.050000X-0.387500X0.050000X-0.387500X0.050000X0.387500X-0.050000X0.387500X0*%
%TD*%
%TA.AperFunction,SMDPad,CuDef*%
%ADD29FreePoly3,0.000000*%
%TD*%
%TA.AperFunction,SMDPad,CuDef*%
%ADD30FreePoly4,0.000000*%
%TD*%
%TA.AperFunction,SMDPad,CuDef*%
%ADD31FreePoly5,0.000000*%
%TD*%
%TA.AperFunction,SMDPad,CuDef*%
%ADD32FreePoly6,0.000000*%
%TD*%
%TA.AperFunction,SMDPad,CuDef*%
%ADD33FreePoly7,0.000000*%
%TD*%
%TA.AperFunction,ComponentPad*%
%ADD34C,0.600000*%
%TD*%
%TA.AperFunction,SMDPad,CuDef*%
%ADD35RoundRect,0.153000X1.547000X-1.547000X1.547000X1.547000X-1.547000X1.547000X-1.547000X-1.547000X0*%
%TD*%
%TA.AperFunction,ViaPad*%
%ADD36C,0.600000*%
%TD*%
%TA.AperFunction,Conductor*%
%ADD37C,0.200000*%
%TD*%
%TA.AperFunction,Conductor*%
%ADD38C,0.400000*%
%TD*%
G04 APERTURE END LIST*
D10*
%TO.P,R3,2*%
%TO.N,/USB_D-*%
X191800000Y-67890000D03*
%TO.P,R3,1*%
%TO.N,Net-(U1-USB_DM)*%
X191800000Y-68910000D03*
%TD*%
D11*
%TO.P,C8,1*%
%TO.N,+1V1*%
X194070000Y-65550000D03*
%TO.P,C8,2*%
%TO.N,GND*%
X195030000Y-65550000D03*
%TD*%
D12*
%TO.P,C1,1*%
%TO.N,GND*%
X185050000Y-56575000D03*
%TO.P,C1,2*%
%TO.N,VBUS*%
X185050000Y-55025000D03*
%TD*%
D13*
%TO.P,SW1,1,1*%
%TO.N,GND*%
X187550000Y-64400000D03*
%TO.P,SW1,2,2*%
%TO.N,Net-(R4-Pad1)*%
X187550000Y-68600000D03*
%TD*%
D14*
%TO.P,C6,1*%
%TO.N,+3V3*%
X196050000Y-70510000D03*
%TO.P,C6,2*%
%TO.N,GND*%
X196050000Y-69550000D03*
%TD*%
D15*
%TO.P,U2,1,GND*%
%TO.N,GND*%
X185350000Y-60237500D03*
%TO.P,U2,2,VO*%
%TO.N,+3V3*%
X187250000Y-60237500D03*
%TO.P,U2,3,VI*%
%TO.N,VBUS*%
X186300000Y-58362500D03*
%TD*%
D16*
%TO.P,C12,1*%
%TO.N,+3V3*%
X196700000Y-78925000D03*
%TO.P,C12,2*%
%TO.N,GND*%
X195740000Y-78925000D03*
%TD*%
D17*
%TO.P,C2,1*%
%TO.N,+3V3*%
X188600000Y-60937500D03*
%TO.P,C2,2*%
%TO.N,GND*%
X188600000Y-62487500D03*
%TD*%
D18*
%TO.P,Y1,1,1*%
%TO.N,Net-(C3-Pad1)*%
X187500000Y-82150000D03*
%TO.P,Y1,2,2*%
%TO.N,GND*%
X189700000Y-82150000D03*
%TO.P,Y1,3,3*%
%TO.N,/XIN*%
X189700000Y-80450000D03*
%TO.P,Y1,4,4*%
%TO.N,GND*%
X187500000Y-80450000D03*
%TD*%
D11*
%TO.P,C10,1*%
%TO.N,+1V1*%
X194070000Y-64450000D03*
%TO.P,C10,2*%
%TO.N,GND*%
X195030000Y-64450000D03*
%TD*%
D19*
%TO.P,J1,1,VBUS*%
%TO.N,VBUS*%
X187000000Y-54675000D03*
%TO.P,J1,2,D-*%
%TO.N,/USB_D-*%
X189500000Y-54675000D03*
%TO.P,J1,3,D+*%
%TO.N,/USB_D+*%
X191500000Y-54675000D03*
%TO.P,J1,4,GND*%
%TO.N,GND*%
X194000000Y-54675000D03*
D20*
%TO.P,J1,5,Shield*%
X184650000Y-52075000D03*
X196350000Y-52075000D03*
%TD*%
D21*
%TO.P,L1,1,1*%
%TO.N,+1V1*%
X193150000Y-68045000D03*
%TO.P,L1,2,2*%
%TO.N,Net-(U1-VREG_LX)*%
X193150000Y-69005000D03*
%TD*%
D16*
%TO.P,C11,1*%
%TO.N,+3V3*%
X196710000Y-79875000D03*
%TO.P,C11,2*%
%TO.N,GND*%
X195750000Y-79875000D03*
%TD*%
%TO.P,C17,1*%
%TO.N,+3V3*%
X196680000Y-71750000D03*
%TO.P,C17,2*%
%TO.N,GND*%
X195720000Y-71750000D03*
%TD*%
D10*
%TO.P,R2,1*%
%TO.N,Net-(U1-USB_DP)*%
X190600000Y-68900000D03*
%TO.P,R2,2*%
%TO.N,/USB_D+*%
X190600000Y-67880000D03*
%TD*%
D11*
%TO.P,C9,1*%
%TO.N,+1V1*%
X194070000Y-66650000D03*
%TO.P,C9,2*%
%TO.N,GND*%
X195030000Y-66650000D03*
%TD*%
D22*
%TO.P,R4,1*%
%TO.N,Net-(R4-Pad1)*%
X187270000Y-69800000D03*
%TO.P,R4,2*%
%TO.N,/BOOTSEL*%
X186250000Y-69800000D03*
%TD*%
D23*
%TO.P,R6,1*%
%TO.N,/VREG_AVDD*%
X194055000Y-70625000D03*
%TO.P,R6,2*%
%TO.N,+3V3*%
X195075000Y-70625000D03*
%TD*%
D16*
%TO.P,C15,1*%
%TO.N,+3V3*%
X196680000Y-74600000D03*
%TO.P,C15,2*%
%TO.N,GND*%
X195720000Y-74600000D03*
%TD*%
D24*
%TO.P,U1,1,IOVDD*%
%TO.N,+3V3*%
X187187500Y-72475000D03*
D25*
%TO.P,U1,2,GPIO0*%
%TO.N,unconnected-(U1-GPIO0-Pad2)*%
X187187500Y-72875000D03*
%TO.P,U1,3,GPIO1*%
%TO.N,unconnected-(U1-GPIO1-Pad3)*%
X187187500Y-73275000D03*
%TO.P,U1,4,GPIO2*%
%TO.N,unconnected-(U1-GPIO2-Pad4)*%
X187187500Y-73675000D03*
%TO.P,U1,5,GPIO3*%
%TO.N,unconnected-(U1-GPIO3-Pad5)*%
X187187500Y-74075000D03*
%TO.P,U1,6,DVDD*%
%TO.N,+1V1*%
X187187500Y-74475000D03*
%TO.P,U1,7,GPIO4*%
%TO.N,unconnected-(U1-GPIO4-Pad7)*%
X187187500Y-74875000D03*
%TO.P,U1,8,GPIO5*%
%TO.N,unconnected-(U1-GPIO5-Pad8)*%
X187187500Y-75275000D03*
%TO.P,U1,9,GPIO6*%
%TO.N,unconnected-(U1-GPIO6-Pad9)*%
X187187500Y-75675000D03*
%TO.P,U1,10,GPIO7*%
%TO.N,unconnected-(U1-GPIO7-Pad10)*%
X187187500Y-76075000D03*
%TO.P,U1,11,IOVDD*%
%TO.N,+3V3*%
X187187500Y-76475000D03*
%TO.P,U1,12,GPIO8*%
%TO.N,unconnected-(U1-GPIO8-Pad12)*%
X187187500Y-76875000D03*
%TO.P,U1,13,GPIO9*%
%TO.N,unconnected-(U1-GPIO9-Pad13)*%
X187187500Y-77275000D03*
%TO.P,U1,14,GPIO10*%
%TO.N,unconnected-(U1-GPIO10-Pad14)*%
X187187500Y-77675000D03*
D26*
%TO.P,U1,15,GPIO11*%
%TO.N,unconnected-(U1-GPIO11-Pad15)*%
X187187500Y-78075000D03*
D27*
%TO.P,U1,16,GPIO12*%
%TO.N,unconnected-(U1-GPIO12-Pad16)*%
X187825000Y-78712500D03*
D28*
%TO.P,U1,17,GPIO13*%
%TO.N,unconnected-(U1-GPIO13-Pad17)*%
X188225000Y-78712500D03*
%TO.P,U1,18,GPIO14*%
%TO.N,unconnected-(U1-GPIO14-Pad18)*%
X188625000Y-78712500D03*
%TO.P,U1,19,GPIO15*%
%TO.N,unconnected-(U1-GPIO15-Pad19)*%
X189025000Y-78712500D03*
%TO.P,U1,20,IOVDD*%
%TO.N,+3V3*%
X189425000Y-78712500D03*
%TO.P,U1,21,XIN*%
%TO.N,/XIN*%
X189825000Y-78712500D03*
%TO.P,U1,22,XOUT*%
%TO.N,/XOUT*%
X190225000Y-78712500D03*
%TO.P,U1,23,DVDD*%
%TO.N,+1V1*%
X190625000Y-78712500D03*
%TO.P,U1,24,SWCLK*%
%TO.N,unconnected-(U1-SWCLK-Pad24)*%
X191025000Y-78712500D03*
%TO.P,U1,25,SWD*%
%TO.N,unconnected-(U1-SWD-Pad25)*%
X191425000Y-78712500D03*
%TO.P,U1,26,RUN*%
%TO.N,unconnected-(U1-RUN-Pad26)*%
X191825000Y-78712500D03*
%TO.P,U1,27,GPIO16*%
%TO.N,unconnected-(U1-GPIO16-Pad27)*%
X192225000Y-78712500D03*
%TO.P,U1,28,GPIO17*%
%TO.N,unconnected-(U1-GPIO17-Pad28)*%
X192625000Y-78712500D03*
%TO.P,U1,29,GPIO18*%
%TO.N,unconnected-(U1-GPIO18-Pad29)*%
X193025000Y-78712500D03*
D29*
%TO.P,U1,30,IOVDD*%
%TO.N,+3V3*%
X193425000Y-78712500D03*
D30*
%TO.P,U1,31,GPIO19*%
%TO.N,unconnected-(U1-GPIO19-Pad31)*%
X194062500Y-78075000D03*
D25*
%TO.P,U1,32,GPIO20*%
%TO.N,unconnected-(U1-GPIO20-Pad32)*%
X194062500Y-77675000D03*
%TO.P,U1,33,GPIO21*%
%TO.N,unconnected-(U1-GPIO21-Pad33)*%
X194062500Y-77275000D03*
%TO.P,U1,34,GPIO22*%
%TO.N,unconnected-(U1-GPIO22-Pad34)*%
X194062500Y-76875000D03*
%TO.P,U1,35,GPIO23*%
%TO.N,unconnected-(U1-GPIO23-Pad35)*%
X194062500Y-76475000D03*
%TO.P,U1,36,GPIO24*%
%TO.N,unconnected-(U1-GPIO24-Pad36)*%
X194062500Y-76075000D03*
%TO.P,U1,37,GPIO25*%
%TO.N,unconnected-(U1-GPIO25-Pad37)*%
X194062500Y-75675000D03*
%TO.P,U1,38,IOVDD*%
%TO.N,+3V3*%
X194062500Y-75275000D03*
%TO.P,U1,39,DVDD*%
%TO.N,+1V1*%
X194062500Y-74875000D03*
%TO.P,U1,40,GPIO26_ADC0*%
%TO.N,unconnected-(U1-GPIO26_ADC0-Pad40)*%
X194062500Y-74475000D03*
%TO.P,U1,41,GPIO27_ADC1*%
%TO.N,unconnected-(U1-GPIO27_ADC1-Pad41)*%
X194062500Y-74075000D03*
%TO.P,U1,42,GPIO28_ADC2*%
%TO.N,unconnected-(U1-GPIO28_ADC2-Pad42)*%
X194062500Y-73675000D03*
%TO.P,U1,43,GPIO29_ADC3*%
%TO.N,unconnected-(U1-GPIO29_ADC3-Pad43)*%
X194062500Y-73275000D03*
%TO.P,U1,44,ADC_AVDD*%
%TO.N,+3V3*%
X194062500Y-72875000D03*
D31*
%TO.P,U1,45,IOVDD*%
X194062500Y-72475000D03*
D32*
%TO.P,U1,46,VREG_AVDD*%
%TO.N,/VREG_AVDD*%
X193425000Y-71837500D03*
D28*
%TO.P,U1,47,VREG_PGND*%
%TO.N,GND*%
X193025000Y-71837500D03*
%TO.P,U1,48,VREG_LX*%
%TO.N,Net-(U1-VREG_LX)*%
X192625000Y-71837500D03*
%TO.P,U1,49,VREG_VIN*%
%TO.N,+3V3*%
X192225000Y-71837500D03*
%TO.P,U1,50,VREG_FB*%
%TO.N,+1V1*%
X191825000Y-71837500D03*
%TO.P,U1,51,USB_DM*%
%TO.N,Net-(U1-USB_DM)*%
X191425000Y-71837500D03*
%TO.P,U1,52,USB_DP*%
%TO.N,Net-(U1-USB_DP)*%
X191025000Y-71837500D03*
%TO.P,U1,53,USB_OTP_VDD*%
%TO.N,+3V3*%
X190625000Y-71837500D03*
%TO.P,U1,54,QSPI_IOVDD*%
X190225000Y-71837500D03*
%TO.P,U1,55,QSPI_SD3*%
%TO.N,unconnected-(U1-QSPI_SD3-Pad55)*%
X189825000Y-71837500D03*
%TO.P,U1,56,QSPI_SCLK*%
%TO.N,unconnected-(U1-QSPI_SCLK-Pad56)*%
X189425000Y-71837500D03*
%TO.P,U1,57,QSPI_SD0*%
%TO.N,unconnected-(U1-QSPI_SD0-Pad57)*%
X189025000Y-71837500D03*
%TO.P,U1,58,QSPI_SD2*%
%TO.N,unconnected-(U1-QSPI_SD2-Pad58)*%
X188625000Y-71837500D03*
%TO.P,U1,59,QSPI_SD1*%
%TO.N,unconnected-(U1-QSPI_SD1-Pad59)*%
X188225000Y-71837500D03*
D33*
%TO.P,U1,60,QSPI_SS*%
%TO.N,/BOOTSEL*%
X187825000Y-71837500D03*
D34*
%TO.P,U1,61,GND*%
%TO.N,GND*%
X189250000Y-73900000D03*
X189250000Y-75275000D03*
X189250000Y-76650000D03*
X190625000Y-73900000D03*
X190625000Y-75275000D03*
D35*
X190625000Y-75275000D03*
D34*
X190625000Y-76650000D03*
X192000000Y-73900000D03*
X192000000Y-75275000D03*
X192000000Y-76650000D03*
%TD*%
D11*
%TO.P,C7,1*%
%TO.N,/VREG_AVDD*%
X194090000Y-69550000D03*
%TO.P,C7,2*%
%TO.N,GND*%
X195050000Y-69550000D03*
%TD*%
D14*
%TO.P,C3,1*%
%TO.N,Net-(C3-Pad1)*%
X185950000Y-81860000D03*
%TO.P,C3,2*%
%TO.N,GND*%
X185950000Y-80900000D03*
%TD*%
D16*
%TO.P,C19,1*%
%TO.N,+3V3*%
X196680000Y-73640000D03*
%TO.P,C19,2*%
%TO.N,GND*%
X195720000Y-73640000D03*
%TD*%
%TO.P,C18,1*%
%TO.N,+3V3*%
X196680000Y-72700000D03*
%TO.P,C18,2*%
%TO.N,GND*%
X195720000Y-72700000D03*
%TD*%
%TO.P,C14,1*%
%TO.N,+3V3*%
X196685000Y-77025000D03*
%TO.P,C14,2*%
%TO.N,GND*%
X195725000Y-77025000D03*
%TD*%
D21*
%TO.P,C4,1*%
%TO.N,/XIN*%
X191250000Y-80850000D03*
%TO.P,C4,2*%
%TO.N,GND*%
X191250000Y-81810000D03*
%TD*%
D16*
%TO.P,C16,1*%
%TO.N,+3V3*%
X196685000Y-76075000D03*
%TO.P,C16,2*%
%TO.N,GND*%
X195725000Y-76075000D03*
%TD*%
D11*
%TO.P,C5,1*%
%TO.N,+1V1*%
X194070000Y-67700000D03*
%TO.P,C5,2*%
%TO.N,GND*%
X195030000Y-67700000D03*
%TD*%
D16*
%TO.P,C13,1*%
%TO.N,+3V3*%
X196700000Y-77975000D03*
%TO.P,C13,2*%
%TO.N,GND*%
X195740000Y-77975000D03*
%TD*%
D23*
%TO.P,R5,1*%
%TO.N,/XOUT*%
X191190000Y-79900000D03*
%TO.P,R5,2*%
%TO.N,Net-(C3-Pad1)*%
X192210000Y-79900000D03*
%TD*%
D36*
%TO.N,/USB_D-*%
X191500000Y-66800000D03*
%TO.N,/USB_D+*%
X190812500Y-66187500D03*
%TO.N,GND*%
X193550000Y-63475000D03*
X186950000Y-62500000D03*
X195080000Y-80450000D03*
X185375000Y-78675000D03*
X193025000Y-70850000D03*
%TO.N,/USB_D+*%
X191875000Y-60225000D03*
%TO.N,/USB_D-*%
X191500000Y-61700000D03*
%TD*%
D37*
%TO.N,/USB_D-*%
X191500000Y-61700000D02*
X191500000Y-60699943D01*
X191500000Y-60699943D02*
X191274000Y-60473943D01*
X191274000Y-60473943D02*
X191274000Y-59976057D01*
X191474000Y-56649000D02*
X189500000Y-54675000D01*
X191274000Y-59976057D02*
X191474000Y-59776057D01*
X191474000Y-59776057D02*
X191474000Y-56649000D01*
%TO.N,/USB_D+*%
X190812500Y-66187500D02*
X190850000Y-66225000D01*
X190850000Y-66225000D02*
X190850000Y-67630000D01*
X190850000Y-67630000D02*
X190600000Y-67880000D01*
%TO.N,/USB_D-*%
X191500000Y-66800000D02*
X191800000Y-67100000D01*
X191800000Y-67100000D02*
X191800000Y-67890000D01*
D38*
%TO.N,VBUS*%
X186300000Y-56275000D02*
X185050000Y-55025000D01*
X185050000Y-55025000D02*
X186650000Y-55025000D01*
X186300000Y-58362500D02*
X186300000Y-56275000D01*
D37*
%TO.N,+3V3*%
X185679000Y-61808500D02*
X187250000Y-60237500D01*
X193425000Y-80900000D02*
X193425000Y-79900000D01*
X193875000Y-81350000D02*
X193425000Y-80900000D01*
X195900000Y-81350000D02*
X193875000Y-81350000D01*
X196710000Y-80540000D02*
X195900000Y-81350000D01*
X196710000Y-79875000D02*
X196710000Y-71780000D01*
X196710000Y-79875000D02*
X196710000Y-80540000D01*
X196661000Y-69899000D02*
X196661000Y-65143450D01*
X196661000Y-65143450D02*
X193818550Y-62301000D01*
X193818550Y-62301000D02*
X189963500Y-62301000D01*
X189899000Y-62236500D02*
X189899000Y-70976226D01*
X188600000Y-60937500D02*
X189899000Y-62236500D01*
X194062500Y-72475000D02*
X194425000Y-72112500D01*
X194425000Y-72112500D02*
X194425000Y-71275000D01*
X194425000Y-71275000D02*
X195075000Y-70625000D01*
%TO.N,VBUS*%
X186650000Y-55025000D02*
X187000000Y-54675000D01*
%TO.N,GND*%
X190910000Y-82150000D02*
X191250000Y-81810000D01*
X189700000Y-82150000D02*
X190910000Y-82150000D01*
X195030000Y-64450000D02*
X194055000Y-63475000D01*
X188600000Y-62487500D02*
X186962500Y-62487500D01*
X193025000Y-71837500D02*
X193025000Y-70850000D01*
X195745000Y-79570000D02*
X195775000Y-79600000D01*
X187237500Y-80537500D02*
X185375000Y-78675000D01*
X187500000Y-80450000D02*
X187412500Y-80537500D01*
X186950000Y-62500000D02*
X186962500Y-62487500D01*
X189700000Y-82150000D02*
X189200000Y-82150000D01*
X187050000Y-80900000D02*
X187500000Y-80450000D01*
X185950000Y-80900000D02*
X187050000Y-80900000D01*
X187412500Y-80537500D02*
X187237500Y-80537500D01*
X195720000Y-73640000D02*
X195720000Y-72700000D01*
X194055000Y-63475000D02*
X193550000Y-63475000D01*
X195030000Y-64450000D02*
X195030000Y-67700000D01*
X195750000Y-79875000D02*
X195655000Y-79875000D01*
X189200000Y-82150000D02*
X187500000Y-80450000D01*
%TO.N,+3V3*%
X193425000Y-79900000D02*
X194801000Y-78524000D01*
X185900000Y-75750000D02*
X185900000Y-73227226D01*
X196680000Y-71750000D02*
X196680000Y-71140000D01*
X185900000Y-73227226D02*
X186653226Y-72474000D01*
X194801000Y-75478226D02*
X194596774Y-75274000D01*
X194595774Y-75275000D02*
X194596774Y-75274000D01*
X195935000Y-70625000D02*
X196050000Y-70510000D01*
X188600000Y-60937500D02*
X187950000Y-60937500D01*
X189016608Y-77974000D02*
X187926000Y-76883392D01*
X186654226Y-72475000D02*
X186653226Y-72474000D01*
X189963500Y-62301000D02*
X189899000Y-62236500D01*
X195935000Y-70510000D02*
X196050000Y-70510000D01*
X196680000Y-71140000D02*
X196050000Y-70510000D01*
X189425000Y-78175000D02*
X189425000Y-78712500D01*
X195075000Y-70625000D02*
X195935000Y-70625000D01*
X189899000Y-70976226D02*
X190225000Y-71302226D01*
X192225000Y-72425000D02*
X192675000Y-72875000D01*
X190625000Y-71837500D02*
X190225000Y-71837500D01*
X189425000Y-78175000D02*
X189224000Y-77974000D01*
X192225000Y-71837500D02*
X192225000Y-72425000D01*
X194801000Y-78524000D02*
X194801000Y-75478226D01*
X187187500Y-72475000D02*
X186654226Y-72475000D01*
X187950000Y-60937500D02*
X187250000Y-60237500D01*
X192675000Y-72875000D02*
X194062500Y-72875000D01*
X194062500Y-75275000D02*
X194595774Y-75275000D01*
X187725000Y-76475000D02*
X187187500Y-76475000D01*
X187187500Y-76475000D02*
X186625000Y-76475000D01*
X194062500Y-72475000D02*
X194062500Y-72875000D01*
X196710000Y-71780000D02*
X196680000Y-71750000D01*
X196050000Y-70510000D02*
X196661000Y-69899000D01*
X186625000Y-76475000D02*
X185900000Y-75750000D01*
X190225000Y-71302226D02*
X190225000Y-71837500D01*
X187926000Y-76676000D02*
X187725000Y-76475000D01*
X187926000Y-76883392D02*
X187926000Y-76676000D01*
X193425000Y-78712500D02*
X193425000Y-79900000D01*
X189224000Y-77974000D02*
X189016608Y-77974000D01*
%TO.N,Net-(C3-Pad1)*%
X187210000Y-81860000D02*
X187500000Y-82150000D01*
X187500000Y-82150000D02*
X188474000Y-83124000D01*
X192210000Y-81787550D02*
X192210000Y-79900000D01*
X188474000Y-83124000D02*
X190873550Y-83124000D01*
X185950000Y-81860000D02*
X187210000Y-81860000D01*
X190873550Y-83124000D02*
X192210000Y-81787550D01*
%TO.N,/XIN*%
X189825000Y-80325000D02*
X189700000Y-80450000D01*
X190100000Y-80850000D02*
X189700000Y-80450000D01*
X189825000Y-78712500D02*
X189825000Y-80325000D01*
X191250000Y-80850000D02*
X190100000Y-80850000D01*
%TO.N,+1V1*%
X192450000Y-68745000D02*
X193150000Y-68045000D01*
X192450000Y-69275000D02*
X192450000Y-68745000D01*
X191825000Y-69900000D02*
X192450000Y-69275000D01*
X190050000Y-77350000D02*
X188959708Y-77350000D01*
X193150000Y-68045000D02*
X193725000Y-68045000D01*
X193725000Y-68045000D02*
X194070000Y-67700000D01*
X192626000Y-73526000D02*
X191825000Y-72725000D01*
X193375000Y-74875000D02*
X192626000Y-74126000D01*
X190625000Y-77925000D02*
X190050000Y-77350000D01*
X188624000Y-73535708D02*
X189583708Y-72576000D01*
X192626000Y-74126000D02*
X192626000Y-73526000D01*
X191825000Y-72725000D02*
X191825000Y-72372774D01*
X191825000Y-72372774D02*
X191825000Y-71837500D01*
X194062500Y-74875000D02*
X193375000Y-74875000D01*
X187725000Y-74475000D02*
X188624000Y-73576000D01*
X188959708Y-77350000D02*
X188624000Y-77014292D01*
X188624000Y-73576000D02*
X188624000Y-73535708D01*
X191621774Y-72576000D02*
X191825000Y-72372774D01*
X190625000Y-78712500D02*
X190625000Y-77925000D01*
X194070000Y-67700000D02*
X194070000Y-64450000D01*
X191825000Y-71837500D02*
X191825000Y-69900000D01*
X189583708Y-72576000D02*
X191621774Y-72576000D01*
X188624000Y-77014292D02*
X188624000Y-73535708D01*
X187187500Y-74475000D02*
X187725000Y-74475000D01*
%TO.N,/VREG_AVDD*%
X194025000Y-71237500D02*
X194025000Y-70655000D01*
X194055000Y-70625000D02*
X194055000Y-69585000D01*
X194055000Y-69585000D02*
X194090000Y-69550000D01*
X194025000Y-70655000D02*
X194055000Y-70625000D01*
X193425000Y-71837500D02*
X194025000Y-71237500D01*
%TO.N,Net-(U1-VREG_LX)*%
X192625000Y-71837500D02*
X192625000Y-71300000D01*
X192233900Y-70066100D02*
X193125000Y-69175000D01*
X192625000Y-71300000D02*
X192226000Y-70901000D01*
X192226000Y-70901000D02*
X192226000Y-70066100D01*
X192226000Y-70066100D02*
X192233900Y-70066100D01*
%TO.N,Net-(U1-USB_DP)*%
X191025000Y-71837500D02*
X191025000Y-69325000D01*
X191025000Y-69325000D02*
X190600000Y-68900000D01*
%TO.N,Net-(U1-USB_DM)*%
X191425000Y-71837500D02*
X191425000Y-69285000D01*
X191425000Y-69285000D02*
X191800000Y-68910000D01*
%TO.N,/BOOTSEL*%
X186250000Y-70262500D02*
X187825000Y-71837500D01*
X186250000Y-69800000D02*
X186250000Y-70262500D01*
%TO.N,Net-(R4-Pad1)*%
X187550000Y-68600000D02*
X187550000Y-69520000D01*
X187550000Y-69520000D02*
X187270000Y-69800000D01*
%TO.N,/XOUT*%
X190225000Y-78712500D02*
X190225000Y-79325000D01*
X190225000Y-79325000D02*
X190800000Y-79900000D01*
X190800000Y-79900000D02*
X191190000Y-79900000D01*
%TO.N,+3V3*%
X187187500Y-72475000D02*
X185679000Y-70966500D01*
X185679000Y-70966500D02*
X185679000Y-61808500D01*
%TO.N,/USB_D+*%
X191875000Y-60225000D02*
X192125000Y-59975000D01*
X192125000Y-56732900D02*
X191650000Y-56257900D01*
X192125000Y-59975000D02*
X192125000Y-56732900D01*
X191650000Y-54825000D02*
X191500000Y-54675000D01*
X191650000Y-56257900D02*
X191650000Y-54825000D01*
%TD*%
%TA.AperFunction,Conductor*%
%TO.N,GND*%
G36*
X183997385Y-53972326D02*
G01*
X184047265Y-54008565D01*
X184208553Y-54090747D01*
X184223428Y-54095580D01*
X184281105Y-54135016D01*
X184308304Y-54199374D01*
X184296392Y-54268221D01*
X184272795Y-54301192D01*
X184227032Y-54346955D01*
X184227029Y-54346959D01*
X184138001Y-54491294D01*
X184137996Y-54491305D01*
X184084651Y-54652290D01*
X184074500Y-54751647D01*
X184074500Y-55298337D01*
X184074501Y-55298355D01*
X184084650Y-55397707D01*
X184084651Y-55397710D01*
X184137996Y-55558694D01*
X184138001Y-55558705D01*
X184227029Y-55703040D01*
X184227032Y-55703044D01*
X184236660Y-55712672D01*
X184270145Y-55773995D01*
X184265161Y-55843687D01*
X184236663Y-55888031D01*
X184227428Y-55897265D01*
X184227424Y-55897271D01*
X184138457Y-56041507D01*
X184138452Y-56041518D01*
X184085144Y-56202393D01*
X184075000Y-56301677D01*
X184075000Y-56325000D01*
X184926000Y-56325000D01*
X184993039Y-56344685D01*
X185038794Y-56397489D01*
X185050000Y-56449000D01*
X185050000Y-56575000D01*
X185176000Y-56575000D01*
X185243039Y-56594685D01*
X185288794Y-56647489D01*
X185300000Y-56699000D01*
X185300000Y-57524999D01*
X185348308Y-57524999D01*
X185348312Y-57524998D01*
X185368518Y-57522934D01*
X185437212Y-57535702D01*
X185488097Y-57583581D01*
X185505020Y-57651370D01*
X185503107Y-57668564D01*
X185502402Y-57672422D01*
X185499500Y-57709298D01*
X185499500Y-59015701D01*
X185502401Y-59052567D01*
X185502402Y-59052573D01*
X185548254Y-59210393D01*
X185548255Y-59210396D01*
X185548256Y-59210398D01*
X185582732Y-59268694D01*
X185600000Y-59331814D01*
X185600000Y-59987500D01*
X186150000Y-59987500D01*
X186150000Y-59724500D01*
X186152550Y-59715814D01*
X186151262Y-59706853D01*
X186162240Y-59682812D01*
X186169685Y-59657461D01*
X186176525Y-59651533D01*
X186180287Y-59643297D01*
X186202521Y-59629007D01*
X186222489Y-59611706D01*
X186233003Y-59609418D01*
X186239065Y-59605523D01*
X186274000Y-59600500D01*
X186325500Y-59600500D01*
X186392539Y-59620185D01*
X186438294Y-59672989D01*
X186449500Y-59724500D01*
X186449500Y-60137402D01*
X186429815Y-60204441D01*
X186413181Y-60225083D01*
X186187083Y-60451181D01*
X186125760Y-60484666D01*
X186099402Y-60487500D01*
X184550000Y-60487500D01*
X184550000Y-60890649D01*
X184552899Y-60927489D01*
X184552900Y-60927495D01*
X184598716Y-61085193D01*
X184598717Y-61085196D01*
X184682314Y-61226552D01*
X184682321Y-61226561D01*
X184798438Y-61342678D01*
X184798447Y-61342685D01*
X184939802Y-61426281D01*
X185027238Y-61451684D01*
X185086124Y-61489291D01*
X185115331Y-61552763D01*
X185112419Y-61602853D01*
X185078499Y-61729443D01*
X185078499Y-61729445D01*
X185078499Y-61897546D01*
X185078500Y-61897559D01*
X185078500Y-70879830D01*
X185078499Y-70879848D01*
X185078499Y-71045554D01*
X185078498Y-71045554D01*
X185119423Y-71198286D01*
X185119424Y-71198287D01*
X185141775Y-71237000D01*
X185198480Y-71335216D01*
X185198482Y-71335218D01*
X185317349Y-71454085D01*
X185317355Y-71454090D01*
X185982946Y-72119681D01*
X186016431Y-72181004D01*
X186011447Y-72250696D01*
X185982946Y-72295043D01*
X185534591Y-72743398D01*
X185534584Y-72743405D01*
X185531286Y-72746704D01*
X185531284Y-72746706D01*
X185419480Y-72858510D01*
X185392339Y-72905520D01*
X185340423Y-72995441D01*
X185299499Y-73148169D01*
X185299499Y-73148171D01*
X185299499Y-73316272D01*
X185299500Y-73316285D01*
X185299500Y-75663330D01*
X185299499Y-75663348D01*
X185299499Y-75829054D01*
X185299498Y-75829054D01*
X185307848Y-75860217D01*
X185340423Y-75981785D01*
X185344067Y-75988097D01*
X185349403Y-75997340D01*
X185349405Y-75997342D01*
X185419477Y-76118712D01*
X185419481Y-76118717D01*
X185538349Y-76237585D01*
X185538355Y-76237590D01*
X186144478Y-76843713D01*
X186144480Y-76843716D01*
X186216536Y-76915772D01*
X186250020Y-76977093D01*
X186251970Y-76988669D01*
X186260561Y-77060217D01*
X186260561Y-77089783D01*
X186254718Y-77138440D01*
X186249500Y-77181898D01*
X186249500Y-77368102D01*
X186255222Y-77415754D01*
X186260561Y-77460217D01*
X186260561Y-77489783D01*
X186257812Y-77512681D01*
X186249500Y-77581898D01*
X186249500Y-77768102D01*
X186251544Y-77785123D01*
X186260561Y-77860217D01*
X186260561Y-77889783D01*
X186259498Y-77898638D01*
X186249500Y-77981898D01*
X186249500Y-78168102D01*
X186254494Y-78209690D01*
X186260122Y-78256561D01*
X186315639Y-78397343D01*
X186407077Y-78517922D01*
X186527656Y-78609360D01*
X186527657Y-78609360D01*
X186527658Y-78609361D01*
X186668436Y-78664877D01*
X186756898Y-78675500D01*
X187100500Y-78675500D01*
X187167539Y-78695185D01*
X187213294Y-78747989D01*
X187224500Y-78799500D01*
X187224500Y-79143102D01*
X187226492Y-79159690D01*
X187232679Y-79211218D01*
X187221126Y-79280126D01*
X187174153Y-79331849D01*
X187109564Y-79350000D01*
X187000029Y-79350000D01*
X187000012Y-79350001D01*
X186897302Y-79360494D01*
X186730880Y-79415641D01*
X186730875Y-79415643D01*
X186581654Y-79507684D01*
X186457684Y-79631654D01*
X186365643Y-79780875D01*
X186365641Y-79780880D01*
X186310494Y-79947302D01*
X186310493Y-79947310D01*
X186304300Y-80007928D01*
X186277903Y-80072620D01*
X186220722Y-80112771D01*
X186207322Y-80114441D01*
X186200000Y-80121210D01*
X186200000Y-80776000D01*
X186180315Y-80843039D01*
X186127511Y-80888794D01*
X186076000Y-80900000D01*
X185950000Y-80900000D01*
X185950000Y-80955500D01*
X185930315Y-81022539D01*
X185877511Y-81068294D01*
X185826000Y-81079500D01*
X185715302Y-81079500D01*
X185679008Y-81082356D01*
X185679002Y-81082357D01*
X185523610Y-81127503D01*
X185523605Y-81127506D01*
X185514766Y-81132732D01*
X185451648Y-81150000D01*
X185145496Y-81150000D01*
X185187968Y-81296194D01*
X185199911Y-81316389D01*
X185217092Y-81384113D01*
X185199911Y-81442628D01*
X185187506Y-81463604D01*
X185187504Y-81463609D01*
X185142357Y-81619002D01*
X185142356Y-81619008D01*
X185139500Y-81655302D01*
X185139500Y-82064697D01*
X185142356Y-82100991D01*
X185142357Y-82100997D01*
X185187504Y-82256390D01*
X185187505Y-82256393D01*
X185269881Y-82395684D01*
X185269887Y-82395692D01*
X185384307Y-82510112D01*
X185384311Y-82510115D01*
X185384313Y-82510117D01*
X185523605Y-82592494D01*
X185564587Y-82604400D01*
X185679002Y-82637642D01*
X185679005Y-82637642D01*
X185679007Y-82637643D01*
X185715310Y-82640500D01*
X185715318Y-82640500D01*
X186184682Y-82640500D01*
X186184690Y-82640500D01*
X186205971Y-82638825D01*
X186274348Y-82653186D01*
X186324106Y-82702236D01*
X186333409Y-82723437D01*
X186365186Y-82819333D01*
X186365187Y-82819336D01*
X186457289Y-82968657D01*
X186501451Y-83012819D01*
X186534936Y-83074142D01*
X186529952Y-83143834D01*
X186488080Y-83199767D01*
X186422616Y-83224184D01*
X186413770Y-83224500D01*
X183924500Y-83224500D01*
X183857461Y-83204815D01*
X183811706Y-83152011D01*
X183800500Y-83100500D01*
X183800500Y-80650000D01*
X185145496Y-80650000D01*
X185700000Y-80650000D01*
X185700000Y-80121210D01*
X185699999Y-80121209D01*
X185679087Y-80122854D01*
X185679081Y-80122855D01*
X185523809Y-80167966D01*
X185523804Y-80167968D01*
X185384625Y-80250278D01*
X185384616Y-80250285D01*
X185270285Y-80364616D01*
X185270278Y-80364625D01*
X185187968Y-80503804D01*
X185145496Y-80650000D01*
X183800500Y-80650000D01*
X183800500Y-59584350D01*
X184550000Y-59584350D01*
X184550000Y-59987500D01*
X185100000Y-59987500D01*
X185100000Y-59002703D01*
X185097503Y-59002900D01*
X184939806Y-59048716D01*
X184939803Y-59048717D01*
X184798447Y-59132314D01*
X184798438Y-59132321D01*
X184682321Y-59248438D01*
X184682314Y-59248447D01*
X184598717Y-59389803D01*
X184598716Y-59389806D01*
X184552900Y-59547504D01*
X184552899Y-59547510D01*
X184550000Y-59584350D01*
X183800500Y-59584350D01*
X183800500Y-56848322D01*
X184075001Y-56848322D01*
X184085144Y-56947607D01*
X184138452Y-57108481D01*
X184138457Y-57108492D01*
X184227424Y-57252728D01*
X184227427Y-57252732D01*
X184347267Y-57372572D01*
X184347271Y-57372575D01*
X184491507Y-57461542D01*
X184491518Y-57461547D01*
X184652393Y-57514855D01*
X184751683Y-57524999D01*
X184799999Y-57524998D01*
X184800000Y-57524998D01*
X184800000Y-56825000D01*
X184075001Y-56825000D01*
X184075001Y-56848322D01*
X183800500Y-56848322D01*
X183800500Y-54072644D01*
X183820185Y-54005605D01*
X183872989Y-53959850D01*
X183942147Y-53949906D01*
X183997385Y-53972326D01*
G37*
%TD.AperFunction*%
%TA.AperFunction,Conductor*%
G36*
X195842539Y-73659685D02*
G01*
X195888294Y-73712489D01*
X195899500Y-73764000D01*
X195899500Y-73874697D01*
X195902356Y-73910991D01*
X195902357Y-73910997D01*
X195947504Y-74066390D01*
X195949393Y-74070756D01*
X195957950Y-74140100D01*
X195949394Y-74169240D01*
X195947506Y-74173603D01*
X195902357Y-74329002D01*
X195902356Y-74329008D01*
X195899501Y-74365299D01*
X195899500Y-74365317D01*
X195899500Y-74834697D01*
X195902356Y-74870991D01*
X195902357Y-74870997D01*
X195947503Y-75026389D01*
X195947505Y-75026393D01*
X195947506Y-75026395D01*
X195952733Y-75035233D01*
X195956753Y-75048518D01*
X195962930Y-75057081D01*
X195967606Y-75084377D01*
X195969821Y-75091696D01*
X195974821Y-75184706D01*
X195974452Y-75186267D01*
X195975000Y-75191362D01*
X195975000Y-75576645D01*
X195957734Y-75639763D01*
X195952507Y-75648600D01*
X195952504Y-75648608D01*
X195907357Y-75804002D01*
X195907356Y-75804008D01*
X195904500Y-75840302D01*
X195904500Y-76309697D01*
X195907356Y-76345991D01*
X195907357Y-76345997D01*
X195954682Y-76508887D01*
X195953283Y-76509293D01*
X195960785Y-76570106D01*
X195954622Y-76591096D01*
X195954682Y-76591114D01*
X195907357Y-76754002D01*
X195907356Y-76754008D01*
X195904500Y-76790302D01*
X195904500Y-77259697D01*
X195907356Y-77295991D01*
X195907357Y-77295997D01*
X195952504Y-77451390D01*
X195952504Y-77451391D01*
X195954189Y-77454240D01*
X195954828Y-77456762D01*
X195955603Y-77458551D01*
X195955314Y-77458675D01*
X195971370Y-77521965D01*
X195966532Y-77551955D01*
X195922357Y-77704002D01*
X195922356Y-77704008D01*
X195919500Y-77740302D01*
X195919500Y-78209697D01*
X195922356Y-78245991D01*
X195922357Y-78245997D01*
X195969682Y-78408887D01*
X195968283Y-78409293D01*
X195975785Y-78470106D01*
X195969622Y-78491096D01*
X195969682Y-78491114D01*
X195922357Y-78654002D01*
X195922356Y-78654008D01*
X195919500Y-78690302D01*
X195919500Y-79159697D01*
X195922356Y-79195991D01*
X195922357Y-79195997D01*
X195967504Y-79351390D01*
X195970603Y-79358551D01*
X195968588Y-79359422D01*
X195983018Y-79416292D01*
X195978179Y-79446285D01*
X195932357Y-79604002D01*
X195932356Y-79604008D01*
X195929500Y-79640302D01*
X195929500Y-79751000D01*
X195909815Y-79818039D01*
X195857011Y-79863794D01*
X195805500Y-79875000D01*
X195750000Y-79875000D01*
X195750000Y-80001000D01*
X195730315Y-80068039D01*
X195677511Y-80113794D01*
X195626000Y-80125000D01*
X194971210Y-80125000D01*
X194972854Y-80145910D01*
X195017968Y-80301195D01*
X195100278Y-80440374D01*
X195100285Y-80440383D01*
X195197721Y-80537819D01*
X195231206Y-80599142D01*
X195226222Y-80668834D01*
X195184350Y-80724767D01*
X195118886Y-80749184D01*
X195110040Y-80749500D01*
X194175097Y-80749500D01*
X194145656Y-80740855D01*
X194115670Y-80734332D01*
X194110654Y-80730577D01*
X194108058Y-80729815D01*
X194087416Y-80713181D01*
X194061819Y-80687584D01*
X194028334Y-80626261D01*
X194025500Y-80599903D01*
X194025500Y-80200096D01*
X194045185Y-80133057D01*
X194061814Y-80112419D01*
X194796271Y-79377963D01*
X194857589Y-79344481D01*
X194927280Y-79349465D01*
X194983214Y-79391336D01*
X195007631Y-79456801D01*
X195003024Y-79500241D01*
X194972854Y-79604087D01*
X194971209Y-79624999D01*
X194971210Y-79625000D01*
X195490000Y-79625000D01*
X195490000Y-77947276D01*
X195477834Y-77924996D01*
X195475000Y-77898638D01*
X195475000Y-75513962D01*
X195472834Y-75509996D01*
X195470000Y-75483638D01*
X195470000Y-73764000D01*
X195472550Y-73755314D01*
X195471262Y-73746353D01*
X195482240Y-73722312D01*
X195489685Y-73696961D01*
X195496525Y-73691033D01*
X195500287Y-73682797D01*
X195522521Y-73668507D01*
X195542489Y-73651206D01*
X195553003Y-73648918D01*
X195559065Y-73645023D01*
X195594000Y-73640000D01*
X195775500Y-73640000D01*
X195842539Y-73659685D01*
G37*
%TD.AperFunction*%
%TA.AperFunction,Conductor*%
G36*
X191442942Y-73196185D02*
G01*
X191463584Y-73212819D01*
X191989181Y-73738416D01*
X192022666Y-73799739D01*
X192025500Y-73826097D01*
X192025500Y-74039330D01*
X192025499Y-74039348D01*
X192025499Y-74205054D01*
X192025498Y-74205054D01*
X192066424Y-74357789D01*
X192066425Y-74357790D01*
X192092235Y-74402493D01*
X192092237Y-74402495D01*
X192145479Y-74494714D01*
X192145481Y-74494717D01*
X192264349Y-74613585D01*
X192264355Y-74613590D01*
X192890139Y-75239374D01*
X192890149Y-75239385D01*
X193006285Y-75355521D01*
X193034000Y-75371522D01*
X193071384Y-75393105D01*
X193119599Y-75443671D01*
X193132823Y-75512278D01*
X193132500Y-75515274D01*
X193128145Y-75551539D01*
X193124500Y-75581898D01*
X193124500Y-75768102D01*
X193128811Y-75804002D01*
X193135561Y-75860217D01*
X193135561Y-75889783D01*
X193129718Y-75938440D01*
X193124500Y-75981898D01*
X193124500Y-76168102D01*
X193130222Y-76215754D01*
X193135561Y-76260217D01*
X193135561Y-76289783D01*
X193133171Y-76309690D01*
X193124500Y-76381898D01*
X193124500Y-76568102D01*
X193128163Y-76598605D01*
X193135561Y-76660217D01*
X193135561Y-76689783D01*
X193130754Y-76729815D01*
X193124500Y-76781898D01*
X193124500Y-76968102D01*
X193126970Y-76988669D01*
X193135561Y-77060217D01*
X193135561Y-77089783D01*
X193129718Y-77138440D01*
X193124500Y-77181898D01*
X193124500Y-77368102D01*
X193130222Y-77415754D01*
X193135561Y-77460217D01*
X193136159Y-77483420D01*
X193135551Y-77492350D01*
X193135123Y-77493436D01*
X193124500Y-77581898D01*
X193124500Y-77654717D01*
X193124214Y-77658920D01*
X193113517Y-77687902D01*
X193104815Y-77717539D01*
X193101528Y-77720387D01*
X193100022Y-77724468D01*
X193075352Y-77743068D01*
X193052011Y-77763294D01*
X193047114Y-77764359D01*
X193044233Y-77766532D01*
X193033389Y-77767345D01*
X193000500Y-77774500D01*
X192931898Y-77774500D01*
X192888440Y-77779718D01*
X192839783Y-77785561D01*
X192810217Y-77785561D01*
X192761559Y-77779718D01*
X192718102Y-77774500D01*
X192531898Y-77774500D01*
X192488440Y-77779718D01*
X192439783Y-77785561D01*
X192410217Y-77785561D01*
X192361559Y-77779718D01*
X192318102Y-77774500D01*
X192131898Y-77774500D01*
X192088440Y-77779718D01*
X192039783Y-77785561D01*
X192010217Y-77785561D01*
X191961559Y-77779718D01*
X191918102Y-77774500D01*
X191731898Y-77774500D01*
X191688440Y-77779718D01*
X191639783Y-77785561D01*
X191610217Y-77785561D01*
X191561559Y-77779718D01*
X191518102Y-77774500D01*
X191331898Y-77774500D01*
X191316987Y-77776290D01*
X191248079Y-77764736D01*
X191196357Y-77717762D01*
X191187646Y-77700624D01*
X191184578Y-77693217D01*
X191184577Y-77693215D01*
X191105520Y-77556284D01*
X190530521Y-76981285D01*
X190530520Y-76981284D01*
X190418716Y-76869480D01*
X190418715Y-76869479D01*
X190418712Y-76869477D01*
X190305881Y-76804335D01*
X190281785Y-76790423D01*
X190249988Y-76781903D01*
X190129057Y-76749499D01*
X189970943Y-76749499D01*
X189963347Y-76749499D01*
X189963331Y-76749500D01*
X189348500Y-76749500D01*
X189281461Y-76729815D01*
X189235706Y-76677011D01*
X189224500Y-76625500D01*
X189224500Y-73835805D01*
X189244185Y-73768766D01*
X189260819Y-73748124D01*
X189796124Y-73212819D01*
X189857447Y-73179334D01*
X189883805Y-73176500D01*
X191375903Y-73176500D01*
X191442942Y-73196185D01*
G37*
%TD.AperFunction*%
%TA.AperFunction,Conductor*%
G36*
X195784185Y-71752550D02*
G01*
X195793147Y-71751262D01*
X195817187Y-71762240D01*
X195842539Y-71769685D01*
X195848466Y-71776525D01*
X195856703Y-71780287D01*
X195870992Y-71802521D01*
X195888294Y-71822489D01*
X195890581Y-71833003D01*
X195894477Y-71839065D01*
X195899500Y-71874000D01*
X195899500Y-71984697D01*
X195902356Y-72020991D01*
X195902357Y-72020997D01*
X195949682Y-72183887D01*
X195948283Y-72184293D01*
X195955785Y-72245106D01*
X195949622Y-72266096D01*
X195949682Y-72266114D01*
X195902357Y-72429002D01*
X195902356Y-72429008D01*
X195899500Y-72465302D01*
X195899500Y-72576000D01*
X195879815Y-72643039D01*
X195827011Y-72688794D01*
X195775500Y-72700000D01*
X195594000Y-72700000D01*
X195526961Y-72680315D01*
X195481206Y-72627511D01*
X195470000Y-72576000D01*
X195470000Y-71874000D01*
X195489685Y-71806961D01*
X195542489Y-71761206D01*
X195594000Y-71750000D01*
X195775500Y-71750000D01*
X195784185Y-71752550D01*
G37*
%TD.AperFunction*%
%TA.AperFunction,Conductor*%
G36*
X193302437Y-69949310D02*
G01*
X193358371Y-69991181D01*
X193382788Y-70056646D01*
X193367936Y-70124919D01*
X193365837Y-70128611D01*
X193332132Y-70185604D01*
X193332129Y-70185611D01*
X193287335Y-70339791D01*
X193287334Y-70339797D01*
X193284500Y-70375811D01*
X193284500Y-70809534D01*
X193278579Y-70829695D01*
X193277474Y-70850681D01*
X193268933Y-70862547D01*
X193264815Y-70876573D01*
X193248935Y-70890332D01*
X193236659Y-70907390D01*
X193214959Y-70919772D01*
X193212011Y-70922328D01*
X193206005Y-70924883D01*
X193205024Y-70925270D01*
X193135438Y-70931560D01*
X193073497Y-70899231D01*
X193071890Y-70897654D01*
X192993716Y-70819480D01*
X192993715Y-70819479D01*
X192989385Y-70815149D01*
X192989374Y-70815139D01*
X192862819Y-70688584D01*
X192829334Y-70627261D01*
X192826500Y-70600903D01*
X192826500Y-70374097D01*
X192846185Y-70307058D01*
X192862819Y-70286416D01*
X192963631Y-70185604D01*
X193171425Y-69977809D01*
X193232746Y-69944326D01*
X193302437Y-69949310D01*
G37*
%TD.AperFunction*%
%TA.AperFunction,Conductor*%
G36*
X195133992Y-64469685D02*
G01*
X195154634Y-64486319D01*
X195243681Y-64575366D01*
X195277166Y-64636689D01*
X195280000Y-64663047D01*
X195280000Y-65300000D01*
X195812159Y-65300000D01*
X195814621Y-65296711D01*
X195837176Y-65288298D01*
X195857838Y-65275940D01*
X195869320Y-65276309D01*
X195880085Y-65272294D01*
X195903609Y-65277411D01*
X195927672Y-65278185D01*
X195938887Y-65285085D01*
X195948358Y-65287146D01*
X195976612Y-65308297D01*
X196024181Y-65355866D01*
X196057666Y-65417189D01*
X196060500Y-65443547D01*
X196060500Y-65755480D01*
X196060326Y-65756070D01*
X196060500Y-65757741D01*
X196060500Y-66855480D01*
X196060326Y-66856070D01*
X196060500Y-66857741D01*
X196060500Y-67905480D01*
X196060326Y-67906070D01*
X196060500Y-67907741D01*
X196060500Y-69488138D01*
X196060007Y-69499188D01*
X196049507Y-69616550D01*
X196038660Y-69644119D01*
X196030315Y-69672539D01*
X196026011Y-69676268D01*
X196023926Y-69681568D01*
X195999896Y-69698896D01*
X195977511Y-69718294D01*
X195971049Y-69719699D01*
X195967255Y-69722436D01*
X195955598Y-69723061D01*
X195926000Y-69729500D01*
X195815302Y-69729500D01*
X195779008Y-69732356D01*
X195779002Y-69732357D01*
X195623610Y-69777503D01*
X195623605Y-69777506D01*
X195614766Y-69782732D01*
X195551648Y-69800000D01*
X195174000Y-69800000D01*
X195106961Y-69780315D01*
X195061206Y-69727511D01*
X195050000Y-69676000D01*
X195050000Y-69550000D01*
X194994500Y-69550000D01*
X194927461Y-69530315D01*
X194881706Y-69477511D01*
X194870500Y-69426000D01*
X194870500Y-69315317D01*
X194870499Y-69315302D01*
X194867643Y-69279008D01*
X194867642Y-69279002D01*
X194822495Y-69123608D01*
X194822492Y-69123600D01*
X194817266Y-69114763D01*
X194800000Y-69051645D01*
X194800000Y-68749969D01*
X195300000Y-68749969D01*
X195300000Y-69300000D01*
X195800000Y-69300000D01*
X195800000Y-68771210D01*
X195799999Y-68771209D01*
X195779087Y-68772854D01*
X195779081Y-68772855D01*
X195623806Y-68817967D01*
X195623796Y-68817971D01*
X195623476Y-68818161D01*
X195623192Y-68818232D01*
X195616640Y-68821068D01*
X195616182Y-68820010D01*
X195555750Y-68835339D01*
X195497241Y-68818157D01*
X195446193Y-68787967D01*
X195446192Y-68787966D01*
X195310459Y-68748531D01*
X195300000Y-68749969D01*
X194800000Y-68749969D01*
X194800000Y-68747611D01*
X194786163Y-68749513D01*
X194653807Y-68787966D01*
X194653806Y-68787967D01*
X194633608Y-68799912D01*
X194602062Y-68807914D01*
X194570842Y-68817178D01*
X194568286Y-68816482D01*
X194565884Y-68817092D01*
X194545642Y-68810322D01*
X194507370Y-68799910D01*
X194486397Y-68787507D01*
X194486392Y-68787504D01*
X194326910Y-68741170D01*
X194268025Y-68703564D01*
X194238819Y-68640091D01*
X194248565Y-68570904D01*
X194294169Y-68517970D01*
X194326902Y-68503020D01*
X194329088Y-68502385D01*
X195280000Y-68502385D01*
X195293836Y-68500483D01*
X195426193Y-68462032D01*
X195426195Y-68462031D01*
X195565374Y-68379721D01*
X195565383Y-68379714D01*
X195679714Y-68265383D01*
X195679721Y-68265374D01*
X195762031Y-68126195D01*
X195762033Y-68126190D01*
X195807144Y-67970918D01*
X195807145Y-67970912D01*
X195808791Y-67950000D01*
X195280000Y-67950000D01*
X195280000Y-68502385D01*
X194329088Y-68502385D01*
X194466395Y-68462494D01*
X194487369Y-68450089D01*
X194518923Y-68442083D01*
X194550138Y-68432821D01*
X194552601Y-68433536D01*
X194555088Y-68432906D01*
X194613613Y-68450090D01*
X194633803Y-68462031D01*
X194769541Y-68501465D01*
X194780000Y-68500027D01*
X194780000Y-68198352D01*
X194797267Y-68135233D01*
X194802494Y-68126395D01*
X194847643Y-67970993D01*
X194850500Y-67934690D01*
X194850500Y-67465310D01*
X194849295Y-67450000D01*
X195280000Y-67450000D01*
X195808790Y-67450000D01*
X195807145Y-67429089D01*
X195762031Y-67273804D01*
X195740929Y-67238123D01*
X195723745Y-67170399D01*
X195740929Y-67111877D01*
X195762031Y-67076196D01*
X195807145Y-66920910D01*
X195808791Y-66900000D01*
X195280000Y-66900000D01*
X195280000Y-67450000D01*
X194849295Y-67450000D01*
X194847643Y-67429007D01*
X194835049Y-67385660D01*
X194802495Y-67273608D01*
X194802492Y-67273600D01*
X194797266Y-67264763D01*
X194792916Y-67248862D01*
X194785023Y-67236580D01*
X194780000Y-67201645D01*
X194780000Y-67148352D01*
X194797267Y-67085233D01*
X194802494Y-67076395D01*
X194818605Y-67020943D01*
X194847642Y-66920997D01*
X194847643Y-66920991D01*
X194850500Y-66884690D01*
X194850500Y-66415310D01*
X194849295Y-66400000D01*
X195280000Y-66400000D01*
X195808790Y-66400000D01*
X195807145Y-66379089D01*
X195762031Y-66223803D01*
X195762030Y-66223801D01*
X195726144Y-66163122D01*
X195708960Y-66095398D01*
X195726144Y-66036878D01*
X195762030Y-65976198D01*
X195807145Y-65820910D01*
X195808791Y-65800000D01*
X195280000Y-65800000D01*
X195280000Y-66400000D01*
X194849295Y-66400000D01*
X194847643Y-66379007D01*
X194802494Y-66223605D01*
X194802493Y-66223604D01*
X194802492Y-66223600D01*
X194797266Y-66214763D01*
X194792916Y-66198862D01*
X194785023Y-66186580D01*
X194780000Y-66151645D01*
X194780000Y-66048352D01*
X194797267Y-65985233D01*
X194802494Y-65976395D01*
X194812172Y-65943086D01*
X194847642Y-65820997D01*
X194847643Y-65820991D01*
X194850500Y-65784690D01*
X194850500Y-65315310D01*
X194847643Y-65279007D01*
X194847404Y-65278185D01*
X194802495Y-65123608D01*
X194802492Y-65123600D01*
X194797266Y-65114763D01*
X194792916Y-65098862D01*
X194785023Y-65086580D01*
X194780000Y-65051645D01*
X194780000Y-64948352D01*
X194797267Y-64885233D01*
X194802494Y-64876395D01*
X194847643Y-64720993D01*
X194850500Y-64684690D01*
X194850500Y-64574000D01*
X194853050Y-64565314D01*
X194851762Y-64556353D01*
X194862740Y-64532312D01*
X194870185Y-64506961D01*
X194877025Y-64501033D01*
X194880787Y-64492797D01*
X194903021Y-64478507D01*
X194922989Y-64461206D01*
X194933503Y-64458918D01*
X194939565Y-64455023D01*
X194974500Y-64450000D01*
X195066953Y-64450000D01*
X195133992Y-64469685D01*
G37*
%TD.AperFunction*%
%TA.AperFunction,Conductor*%
G36*
X187636898Y-61454069D02*
G01*
X187663618Y-61465555D01*
X187668965Y-61468642D01*
X187712505Y-61510932D01*
X187777031Y-61615543D01*
X187786660Y-61625172D01*
X187820145Y-61686495D01*
X187815161Y-61756187D01*
X187786663Y-61800531D01*
X187777428Y-61809765D01*
X187777424Y-61809771D01*
X187688457Y-61954007D01*
X187688452Y-61954018D01*
X187635144Y-62114893D01*
X187625000Y-62214177D01*
X187625000Y-62237500D01*
X188476000Y-62237500D01*
X188543039Y-62257185D01*
X188588794Y-62309989D01*
X188600000Y-62361500D01*
X188600000Y-62613500D01*
X188580315Y-62680539D01*
X188527511Y-62726294D01*
X188476000Y-62737500D01*
X187625001Y-62737500D01*
X187625001Y-62760822D01*
X187635144Y-62860107D01*
X187688452Y-63020981D01*
X187688457Y-63020992D01*
X187777424Y-63165228D01*
X187777427Y-63165232D01*
X187900514Y-63288319D01*
X187933999Y-63349642D01*
X187929015Y-63419334D01*
X187887143Y-63475267D01*
X187821679Y-63499684D01*
X187812833Y-63500000D01*
X187800000Y-63500000D01*
X187800000Y-64150000D01*
X189049999Y-64150000D01*
X189049999Y-64143417D01*
X189043591Y-64072897D01*
X189043590Y-64072892D01*
X188993018Y-63910603D01*
X188905072Y-63765122D01*
X188789130Y-63649180D01*
X188755645Y-63587857D01*
X188760629Y-63518165D01*
X188802501Y-63462232D01*
X188867965Y-63437815D01*
X188876811Y-63437499D01*
X188898307Y-63437499D01*
X188898323Y-63437498D01*
X188997607Y-63427355D01*
X189135496Y-63381664D01*
X189205324Y-63379262D01*
X189265366Y-63414994D01*
X189296559Y-63477514D01*
X189298500Y-63499370D01*
X189298500Y-68340574D01*
X189278815Y-68407613D01*
X189226011Y-68453368D01*
X189156853Y-68463312D01*
X189093297Y-68434287D01*
X189055523Y-68375509D01*
X189050628Y-68346201D01*
X189050500Y-68343390D01*
X189050500Y-68343384D01*
X189044086Y-68272804D01*
X188993478Y-68110394D01*
X188905472Y-67964815D01*
X188905470Y-67964813D01*
X188905469Y-67964811D01*
X188785188Y-67844530D01*
X188639606Y-67756522D01*
X188584700Y-67739413D01*
X188477196Y-67705914D01*
X188477194Y-67705913D01*
X188477192Y-67705913D01*
X188427778Y-67701423D01*
X188406616Y-67699500D01*
X186693384Y-67699500D01*
X186674145Y-67701248D01*
X186622807Y-67705913D01*
X186460388Y-67756524D01*
X186454390Y-67759224D01*
X186385178Y-67768787D01*
X186321783Y-67739413D01*
X186284332Y-67680428D01*
X186279500Y-67646148D01*
X186279500Y-65353298D01*
X186299185Y-65286259D01*
X186351989Y-65240504D01*
X186421147Y-65230560D01*
X186454396Y-65240225D01*
X186460604Y-65243019D01*
X186622894Y-65293590D01*
X186622893Y-65293590D01*
X186693427Y-65299999D01*
X187299999Y-65299999D01*
X187800000Y-65299999D01*
X188406581Y-65299999D01*
X188477102Y-65293591D01*
X188477107Y-65293590D01*
X188639396Y-65243018D01*
X188784877Y-65155072D01*
X188905072Y-65034877D01*
X188993019Y-64889395D01*
X189043590Y-64727106D01*
X189050000Y-64656572D01*
X189050000Y-64650000D01*
X187800000Y-64650000D01*
X187800000Y-65299999D01*
X187299999Y-65299999D01*
X187300000Y-65299998D01*
X187300000Y-63500000D01*
X186693417Y-63500000D01*
X186622897Y-63506408D01*
X186622892Y-63506409D01*
X186460604Y-63556980D01*
X186454389Y-63559778D01*
X186385177Y-63569340D01*
X186321782Y-63539965D01*
X186284332Y-63480979D01*
X186279500Y-63446701D01*
X186279500Y-62108597D01*
X186299185Y-62041558D01*
X186315819Y-62020916D01*
X186566377Y-61770358D01*
X186842292Y-61494442D01*
X186903613Y-61460959D01*
X186964567Y-61463049D01*
X186989403Y-61470265D01*
X186997427Y-61472597D01*
X186997428Y-61472597D01*
X186997431Y-61472598D01*
X187034306Y-61475500D01*
X187034314Y-61475500D01*
X187465686Y-61475500D01*
X187465694Y-61475500D01*
X187502569Y-61472598D01*
X187567030Y-61453870D01*
X187636898Y-61454069D01*
G37*
%TD.AperFunction*%
%TA.AperFunction,Conductor*%
G36*
X193585492Y-62921185D02*
G01*
X193606134Y-62937819D01*
X194096134Y-63427819D01*
X194129619Y-63489142D01*
X194124635Y-63558834D01*
X194082763Y-63614767D01*
X194017299Y-63639184D01*
X194008453Y-63639500D01*
X193865302Y-63639500D01*
X193829008Y-63642356D01*
X193829002Y-63642357D01*
X193673609Y-63687504D01*
X193673606Y-63687505D01*
X193534315Y-63769881D01*
X193534307Y-63769887D01*
X193419887Y-63884307D01*
X193419881Y-63884315D01*
X193337505Y-64023606D01*
X193337504Y-64023609D01*
X193292357Y-64179002D01*
X193292356Y-64179008D01*
X193289500Y-64215302D01*
X193289500Y-64684697D01*
X193292356Y-64720991D01*
X193292357Y-64720997D01*
X193337504Y-64876390D01*
X193337504Y-64876391D01*
X193373276Y-64936880D01*
X193390457Y-65004605D01*
X193373276Y-65063120D01*
X193337504Y-65123608D01*
X193337504Y-65123609D01*
X193292357Y-65279002D01*
X193292356Y-65279008D01*
X193289500Y-65315302D01*
X193289500Y-65784697D01*
X193292356Y-65820991D01*
X193292357Y-65820997D01*
X193337504Y-65976390D01*
X193337504Y-65976391D01*
X193373276Y-66036880D01*
X193390457Y-66104605D01*
X193373276Y-66163120D01*
X193337504Y-66223608D01*
X193337504Y-66223609D01*
X193292357Y-66379002D01*
X193292356Y-66379008D01*
X193289500Y-66415302D01*
X193289500Y-66884697D01*
X193292356Y-66920991D01*
X193292357Y-66920997D01*
X193337504Y-67076390D01*
X193337506Y-67076395D01*
X193338089Y-67077381D01*
X193338310Y-67078253D01*
X193340603Y-67083551D01*
X193339748Y-67083920D01*
X193355270Y-67145105D01*
X193333110Y-67211367D01*
X193278643Y-67255130D01*
X193231356Y-67264500D01*
X192915302Y-67264500D01*
X192879008Y-67267356D01*
X192879002Y-67267357D01*
X192723609Y-67312504D01*
X192723602Y-67312507D01*
X192628961Y-67368477D01*
X192601363Y-67375478D01*
X192574687Y-67385429D01*
X192567935Y-67383960D01*
X192561237Y-67385660D01*
X192534229Y-67376628D01*
X192506414Y-67370577D01*
X192498563Y-67364700D01*
X192494975Y-67363500D01*
X192478160Y-67349426D01*
X192436819Y-67308085D01*
X192403334Y-67246762D01*
X192400500Y-67220404D01*
X192400500Y-67020945D01*
X192400500Y-67020943D01*
X192373696Y-66920910D01*
X192363214Y-66881788D01*
X192363213Y-66881786D01*
X192359577Y-66868216D01*
X192359577Y-66868215D01*
X192315998Y-66792734D01*
X192314946Y-66790750D01*
X192311327Y-66773074D01*
X192300500Y-66732665D01*
X192300500Y-66721155D01*
X192300499Y-66721153D01*
X192269738Y-66566510D01*
X192269737Y-66566503D01*
X192269735Y-66566498D01*
X192209397Y-66420827D01*
X192209390Y-66420814D01*
X192121789Y-66289711D01*
X192121786Y-66289707D01*
X192010292Y-66178213D01*
X192010288Y-66178210D01*
X191879185Y-66090609D01*
X191879172Y-66090602D01*
X191733501Y-66030264D01*
X191733491Y-66030261D01*
X191668084Y-66017251D01*
X191606173Y-65984866D01*
X191577715Y-65943086D01*
X191521897Y-65808327D01*
X191521890Y-65808314D01*
X191434289Y-65677211D01*
X191434286Y-65677207D01*
X191322792Y-65565713D01*
X191322788Y-65565710D01*
X191191685Y-65478109D01*
X191191672Y-65478102D01*
X191046001Y-65417764D01*
X191045989Y-65417761D01*
X190891345Y-65387000D01*
X190891342Y-65387000D01*
X190733658Y-65387000D01*
X190733653Y-65387000D01*
X190647691Y-65404099D01*
X190578099Y-65397872D01*
X190522922Y-65355009D01*
X190499678Y-65289119D01*
X190499500Y-65282482D01*
X190499500Y-63025500D01*
X190519185Y-62958461D01*
X190571989Y-62912706D01*
X190623500Y-62901500D01*
X193518453Y-62901500D01*
X193585492Y-62921185D01*
G37*
%TD.AperFunction*%
%TA.AperFunction,Conductor*%
G36*
X195819731Y-49895185D02*
G01*
X195865486Y-49947989D01*
X195875430Y-50017147D01*
X195846405Y-50080703D01*
X195808987Y-50109985D01*
X195747265Y-50141434D01*
X195600830Y-50247823D01*
X195472823Y-50375830D01*
X195366434Y-50522265D01*
X195284252Y-50683552D01*
X195284251Y-50683555D01*
X195228317Y-50855706D01*
X195200000Y-51034493D01*
X195200000Y-51825000D01*
X196000000Y-51825000D01*
X196000000Y-52325000D01*
X195200000Y-52325000D01*
X195200000Y-53115506D01*
X195228317Y-53294293D01*
X195284251Y-53466444D01*
X195284252Y-53466447D01*
X195366434Y-53627734D01*
X195472823Y-53774169D01*
X195600830Y-53902176D01*
X195747265Y-54008565D01*
X195908552Y-54090747D01*
X195908555Y-54090748D01*
X196080699Y-54146680D01*
X196080712Y-54146683D01*
X196100000Y-54149738D01*
X196100000Y-53219975D01*
X196135095Y-53255070D01*
X196214905Y-53301148D01*
X196303922Y-53325000D01*
X196396078Y-53325000D01*
X196485095Y-53301148D01*
X196564905Y-53255070D01*
X196600000Y-53219975D01*
X196600000Y-54149737D01*
X196619287Y-54146683D01*
X196619300Y-54146680D01*
X196791444Y-54090748D01*
X196791447Y-54090747D01*
X196952734Y-54008565D01*
X197052615Y-53935999D01*
X197118421Y-53912519D01*
X197186475Y-53928345D01*
X197235170Y-53978450D01*
X197249500Y-54036317D01*
X197249500Y-64583351D01*
X197243262Y-64604593D01*
X197241685Y-64626675D01*
X197233611Y-64637462D01*
X197229815Y-64650390D01*
X197213084Y-64664887D01*
X197199818Y-64682612D01*
X197187193Y-64687321D01*
X197177011Y-64696145D01*
X197155097Y-64699295D01*
X197134356Y-64707034D01*
X197121190Y-64704171D01*
X197107853Y-64706089D01*
X197087713Y-64696891D01*
X197066082Y-64692188D01*
X197048350Y-64678915D01*
X197044297Y-64677064D01*
X197037826Y-64671039D01*
X197025381Y-64658596D01*
X197025380Y-64658594D01*
X197025374Y-64658589D01*
X194306140Y-61939355D01*
X194306138Y-61939352D01*
X194187267Y-61820481D01*
X194187266Y-61820480D01*
X194100454Y-61770360D01*
X194100454Y-61770359D01*
X194100450Y-61770358D01*
X194050335Y-61741423D01*
X193897607Y-61700499D01*
X193739493Y-61700499D01*
X193731897Y-61700499D01*
X193731881Y-61700500D01*
X192418046Y-61700500D01*
X192351007Y-61680815D01*
X192305252Y-61628011D01*
X192296429Y-61600691D01*
X192281690Y-61526595D01*
X192269737Y-61466503D01*
X192253077Y-61426281D01*
X192209397Y-61320827D01*
X192209390Y-61320814D01*
X192121398Y-61189125D01*
X192115747Y-61171078D01*
X192105523Y-61155169D01*
X192101071Y-61124207D01*
X192100520Y-61122447D01*
X192100500Y-61120234D01*
X192100500Y-61080903D01*
X192120185Y-61013864D01*
X192172989Y-60968109D01*
X192176999Y-60966362D01*
X192254179Y-60934394D01*
X192385289Y-60846789D01*
X192496789Y-60735289D01*
X192584394Y-60604179D01*
X192644737Y-60458497D01*
X192675500Y-60303842D01*
X192675500Y-60253362D01*
X192683167Y-60214822D01*
X192682473Y-60214636D01*
X192689405Y-60188764D01*
X192725500Y-60054057D01*
X192725500Y-56653843D01*
X192684577Y-56501116D01*
X192654488Y-56449000D01*
X192605524Y-56364190D01*
X192605521Y-56364186D01*
X192605520Y-56364184D01*
X192493716Y-56252380D01*
X192493715Y-56252379D01*
X192489385Y-56248049D01*
X192489374Y-56248039D01*
X192361887Y-56120552D01*
X192328402Y-56059229D01*
X192333386Y-55989537D01*
X192361883Y-55945194D01*
X192429816Y-55877262D01*
X192525789Y-55724522D01*
X192585368Y-55554255D01*
X192600500Y-55419954D01*
X192600500Y-55419930D01*
X192900000Y-55419930D01*
X192915122Y-55554141D01*
X192974663Y-55724301D01*
X193070577Y-55876948D01*
X193198051Y-56004422D01*
X193350698Y-56100336D01*
X193520858Y-56159877D01*
X193655069Y-56174999D01*
X193655070Y-56175000D01*
X193750000Y-56175000D01*
X194250000Y-56175000D01*
X194344930Y-56175000D01*
X194344930Y-56174999D01*
X194479141Y-56159877D01*
X194649301Y-56100336D01*
X194801948Y-56004422D01*
X194929422Y-55876948D01*
X195025336Y-55724301D01*
X195084877Y-55554141D01*
X195099999Y-55419930D01*
X195100000Y-55419930D01*
X195100000Y-54925000D01*
X194250000Y-54925000D01*
X194250000Y-56175000D01*
X193750000Y-56175000D01*
X193750000Y-54925000D01*
X192900000Y-54925000D01*
X192900000Y-55419930D01*
X192600500Y-55419930D01*
X192600500Y-53930069D01*
X192900000Y-53930069D01*
X192900000Y-54425000D01*
X193750000Y-54425000D01*
X194250000Y-54425000D01*
X195100000Y-54425000D01*
X195100000Y-53930070D01*
X195099999Y-53930069D01*
X195084877Y-53795858D01*
X195025336Y-53625698D01*
X194929422Y-53473051D01*
X194801948Y-53345577D01*
X194649301Y-53249663D01*
X194479141Y-53190122D01*
X194344930Y-53175000D01*
X194250000Y-53175000D01*
X194250000Y-54425000D01*
X193750000Y-54425000D01*
X193750000Y-53175000D01*
X193655070Y-53175000D01*
X193520858Y-53190122D01*
X193350698Y-53249663D01*
X193198051Y-53345577D01*
X193070577Y-53473051D01*
X192974663Y-53625698D01*
X192915122Y-53795858D01*
X192900000Y-53930069D01*
X192600500Y-53930069D01*
X192600500Y-53930046D01*
X192585368Y-53795745D01*
X192525789Y-53625478D01*
X192429816Y-53472738D01*
X192302262Y-53345184D01*
X192149523Y-53249211D01*
X191979254Y-53189631D01*
X191979249Y-53189630D01*
X191844960Y-53174500D01*
X191844954Y-53174500D01*
X191155046Y-53174500D01*
X191155039Y-53174500D01*
X191020750Y-53189630D01*
X191020745Y-53189631D01*
X190850476Y-53249211D01*
X190697737Y-53345184D01*
X190587681Y-53455241D01*
X190526358Y-53488726D01*
X190456666Y-53483742D01*
X190412319Y-53455241D01*
X190302262Y-53345184D01*
X190149523Y-53249211D01*
X189979254Y-53189631D01*
X189979249Y-53189630D01*
X189844960Y-53174500D01*
X189844954Y-53174500D01*
X189155046Y-53174500D01*
X189155039Y-53174500D01*
X189020750Y-53189630D01*
X189020745Y-53189631D01*
X188850476Y-53249211D01*
X188697737Y-53345184D01*
X188570184Y-53472737D01*
X188474211Y-53625476D01*
X188414631Y-53795745D01*
X188414630Y-53795750D01*
X188399500Y-53930039D01*
X188399500Y-55419960D01*
X188414630Y-55554249D01*
X188414631Y-55554254D01*
X188474211Y-55724523D01*
X188505297Y-55773995D01*
X188570184Y-55877262D01*
X188697738Y-56004816D01*
X188850478Y-56100789D01*
X188978075Y-56145437D01*
X189020745Y-56160368D01*
X189020750Y-56160369D01*
X189111246Y-56170565D01*
X189155040Y-56175499D01*
X189155043Y-56175500D01*
X189155046Y-56175500D01*
X189844957Y-56175500D01*
X189844958Y-56175499D01*
X189902158Y-56169054D01*
X189979250Y-56160369D01*
X189979251Y-56160368D01*
X189979255Y-56160368D01*
X190021925Y-56145436D01*
X190091700Y-56141873D01*
X190150560Y-56174796D01*
X190837181Y-56861416D01*
X190870666Y-56922739D01*
X190873500Y-56949097D01*
X190873500Y-59475959D01*
X190866836Y-59498651D01*
X190864558Y-59522194D01*
X190856215Y-59534824D01*
X190853815Y-59542998D01*
X190846871Y-59552737D01*
X190842348Y-59558472D01*
X190793480Y-59607341D01*
X190769697Y-59648535D01*
X190714423Y-59744272D01*
X190673499Y-59897000D01*
X190673499Y-59897002D01*
X190673499Y-60065103D01*
X190673500Y-60065116D01*
X190673500Y-60387273D01*
X190673499Y-60387291D01*
X190673499Y-60552997D01*
X190673498Y-60552997D01*
X190714423Y-60705728D01*
X190728596Y-60730276D01*
X190728595Y-60730276D01*
X190728596Y-60730277D01*
X190793475Y-60842652D01*
X190793481Y-60842660D01*
X190863181Y-60912360D01*
X190877884Y-60939287D01*
X190894477Y-60965106D01*
X190895368Y-60971306D01*
X190896666Y-60973683D01*
X190899500Y-61000041D01*
X190899500Y-61120234D01*
X190879815Y-61187273D01*
X190878602Y-61189125D01*
X190790609Y-61320814D01*
X190790602Y-61320827D01*
X190730264Y-61466498D01*
X190730261Y-61466510D01*
X190703571Y-61600691D01*
X190671186Y-61662602D01*
X190610471Y-61697176D01*
X190581954Y-61700500D01*
X190263597Y-61700500D01*
X190196558Y-61680815D01*
X190175916Y-61664181D01*
X189611818Y-61100083D01*
X189578333Y-61038760D01*
X189575499Y-61012402D01*
X189575499Y-60664162D01*
X189575498Y-60664144D01*
X189565349Y-60564792D01*
X189565348Y-60564789D01*
X189512003Y-60403803D01*
X189511999Y-60403797D01*
X189511998Y-60403794D01*
X189422970Y-60259459D01*
X189422967Y-60259455D01*
X189303044Y-60139532D01*
X189303040Y-60139529D01*
X189158705Y-60050501D01*
X189158699Y-60050498D01*
X189158697Y-60050497D01*
X189149499Y-60047449D01*
X188997709Y-59997151D01*
X188898346Y-59987000D01*
X188301662Y-59987000D01*
X188301644Y-59987001D01*
X188202281Y-59997152D01*
X188200440Y-59997546D01*
X188199278Y-59997458D01*
X188195557Y-59997839D01*
X188195489Y-59997174D01*
X188130766Y-59992322D01*
X188074977Y-59950258D01*
X188050786Y-59884710D01*
X188050500Y-59876290D01*
X188050500Y-59584313D01*
X188050499Y-59584298D01*
X188048015Y-59552737D01*
X188047598Y-59547431D01*
X188046310Y-59542998D01*
X188001745Y-59389606D01*
X188001744Y-59389603D01*
X188001744Y-59389602D01*
X187918081Y-59248135D01*
X187918079Y-59248133D01*
X187918076Y-59248129D01*
X187801870Y-59131923D01*
X187801862Y-59131917D01*
X187723681Y-59085681D01*
X187660398Y-59048256D01*
X187660397Y-59048255D01*
X187660396Y-59048255D01*
X187660393Y-59048254D01*
X187502573Y-59002402D01*
X187502567Y-59002401D01*
X187465701Y-58999500D01*
X187465694Y-58999500D01*
X187224500Y-58999500D01*
X187157461Y-58979815D01*
X187111706Y-58927011D01*
X187100500Y-58875500D01*
X187100500Y-57709313D01*
X187100499Y-57709298D01*
X187097598Y-57672432D01*
X187097597Y-57672426D01*
X187054165Y-57522934D01*
X187051744Y-57514602D01*
X187020365Y-57461542D01*
X187017768Y-57457150D01*
X187000500Y-57394030D01*
X187000500Y-56299500D01*
X187020185Y-56232461D01*
X187072989Y-56186706D01*
X187124500Y-56175500D01*
X187344957Y-56175500D01*
X187344958Y-56175499D01*
X187412104Y-56167934D01*
X187479249Y-56160369D01*
X187479252Y-56160368D01*
X187479255Y-56160368D01*
X187649522Y-56100789D01*
X187802262Y-56004816D01*
X187929816Y-55877262D01*
X188025789Y-55724522D01*
X188085368Y-55554255D01*
X188100500Y-55419954D01*
X188100500Y-53930046D01*
X188085368Y-53795745D01*
X188025789Y-53625478D01*
X187929816Y-53472738D01*
X187802262Y-53345184D01*
X187649523Y-53249211D01*
X187479254Y-53189631D01*
X187479249Y-53189630D01*
X187344960Y-53174500D01*
X187344954Y-53174500D01*
X186655046Y-53174500D01*
X186655039Y-53174500D01*
X186520750Y-53189630D01*
X186520745Y-53189631D01*
X186350476Y-53249211D01*
X186197737Y-53345184D01*
X186070184Y-53472737D01*
X185974211Y-53625476D01*
X185914631Y-53795745D01*
X185914630Y-53795750D01*
X185899500Y-53930039D01*
X185899500Y-54095191D01*
X185879815Y-54162230D01*
X185827011Y-54207985D01*
X185757853Y-54217929D01*
X185710403Y-54200730D01*
X185608699Y-54137998D01*
X185608694Y-54137996D01*
X185479516Y-54095191D01*
X185465020Y-54090387D01*
X185407576Y-54050615D01*
X185380753Y-53986100D01*
X185393068Y-53917324D01*
X185416344Y-53885000D01*
X185527177Y-53774167D01*
X185633565Y-53627734D01*
X185715747Y-53466447D01*
X185715748Y-53466444D01*
X185771682Y-53294293D01*
X185800000Y-53115506D01*
X185800000Y-52325000D01*
X185000000Y-52325000D01*
X185000000Y-51996153D01*
X187449500Y-51996153D01*
X187449500Y-52153846D01*
X187480261Y-52308489D01*
X187480264Y-52308501D01*
X187540602Y-52454172D01*
X187540609Y-52454185D01*
X187628210Y-52585288D01*
X187628213Y-52585292D01*
X187739707Y-52696786D01*
X187739711Y-52696789D01*
X187870814Y-52784390D01*
X187870827Y-52784397D01*
X188016498Y-52844735D01*
X188016503Y-52844737D01*
X188171153Y-52875499D01*
X188171156Y-52875500D01*
X188171158Y-52875500D01*
X188328844Y-52875500D01*
X188328845Y-52875499D01*
X188483497Y-52844737D01*
X188629179Y-52784394D01*
X188760289Y-52696789D01*
X188871789Y-52585289D01*
X188959394Y-52454179D01*
X189019737Y-52308497D01*
X189050500Y-52153842D01*
X189050500Y-51996158D01*
X189050500Y-51996155D01*
X189050499Y-51996153D01*
X191949500Y-51996153D01*
X191949500Y-52153846D01*
X191980261Y-52308489D01*
X191980264Y-52308501D01*
X192040602Y-52454172D01*
X192040609Y-52454185D01*
X192128210Y-52585288D01*
X192128213Y-52585292D01*
X192239707Y-52696786D01*
X192239711Y-52696789D01*
X192370814Y-52784390D01*
X192370827Y-52784397D01*
X192516498Y-52844735D01*
X192516503Y-52844737D01*
X192671153Y-52875499D01*
X192671156Y-52875500D01*
X192671158Y-52875500D01*
X192828844Y-52875500D01*
X192828845Y-52875499D01*
X192983497Y-52844737D01*
X193129179Y-52784394D01*
X193260289Y-52696789D01*
X193371789Y-52585289D01*
X193459394Y-52454179D01*
X193519737Y-52308497D01*
X193541120Y-52201000D01*
X193550500Y-52153844D01*
X193550500Y-51996155D01*
X193550499Y-51996153D01*
X193530873Y-51897489D01*
X193519737Y-51841503D01*
X193512901Y-51825000D01*
X193459397Y-51695827D01*
X193459390Y-51695814D01*
X193371789Y-51564711D01*
X193371786Y-51564707D01*
X193260292Y-51453213D01*
X193260288Y-51453210D01*
X193129185Y-51365609D01*
X193129172Y-51365602D01*
X192983501Y-51305264D01*
X192983489Y-51305261D01*
X192828845Y-51274500D01*
X192828842Y-51274500D01*
X192671158Y-51274500D01*
X192671155Y-51274500D01*
X192516510Y-51305261D01*
X192516498Y-51305264D01*
X192370827Y-51365602D01*
X192370814Y-51365609D01*
X192239711Y-51453210D01*
X192239707Y-51453213D01*
X192128213Y-51564707D01*
X192128210Y-51564711D01*
X192040609Y-51695814D01*
X192040602Y-51695827D01*
X191980264Y-51841498D01*
X191980261Y-51841510D01*
X191949500Y-51996153D01*
X189050499Y-51996153D01*
X189030873Y-51897489D01*
X189019737Y-51841503D01*
X189012901Y-51825000D01*
X188959397Y-51695827D01*
X188959390Y-51695814D01*
X188871789Y-51564711D01*
X188871786Y-51564707D01*
X188760292Y-51453213D01*
X188760288Y-51453210D01*
X188629185Y-51365609D01*
X188629172Y-51365602D01*
X188483501Y-51305264D01*
X188483489Y-51305261D01*
X188328845Y-51274500D01*
X188328842Y-51274500D01*
X188171158Y-51274500D01*
X188171155Y-51274500D01*
X188016510Y-51305261D01*
X188016498Y-51305264D01*
X187870827Y-51365602D01*
X187870814Y-51365609D01*
X187739711Y-51453210D01*
X187739707Y-51453213D01*
X187628213Y-51564707D01*
X187628210Y-51564711D01*
X187540609Y-51695814D01*
X187540602Y-51695827D01*
X187480264Y-51841498D01*
X187480261Y-51841510D01*
X187449500Y-51996153D01*
X185000000Y-51996153D01*
X185000000Y-51825000D01*
X185800000Y-51825000D01*
X185800000Y-51034493D01*
X185771682Y-50855706D01*
X185715748Y-50683555D01*
X185715747Y-50683552D01*
X185633565Y-50522265D01*
X185527176Y-50375830D01*
X185399169Y-50247823D01*
X185252734Y-50141434D01*
X185191013Y-50109985D01*
X185140217Y-50062010D01*
X185123422Y-49994189D01*
X185145960Y-49928054D01*
X185200675Y-49884603D01*
X185247308Y-49875500D01*
X195752692Y-49875500D01*
X195819731Y-49895185D01*
G37*
%TD.AperFunction*%
%TD*%
M02*
