%TF.GenerationSoftware,KiCad,Pcbnew,9.0.5*%
%TF.CreationDate,2025-11-01T21:25:21+11:00*%
%TF.ProjectId,YetAnotherAuthKey,59657441-6e6f-4746-9865-72417574684b,rev?*%
%TF.SameCoordinates,Original*%
%TF.FileFunction,Copper,L2,Bot*%
%TF.FilePolarity,Positive*%
%FSLAX46Y46*%
G04 Gerber Fmt 4.6, Leading zero omitted, Abs format (unit mm)*
G04 Created by KiCad (PCBNEW 9.0.5) date 2025-11-01 21:25:21*
%MOMM*%
%LPD*%
G01*
G04 APERTURE LIST*
%TA.AperFunction,HeatsinkPad*%
%ADD10O,1.300000X3.200000*%
%TD*%
%TA.AperFunction,ComponentPad*%
%ADD11C,0.600000*%
%TD*%
%TA.AperFunction,ViaPad*%
%ADD12C,0.600000*%
%TD*%
%TA.AperFunction,Conductor*%
%ADD13C,0.200000*%
%TD*%
G04 APERTURE END LIST*
D10*
%TO.P,J1,5,Shield*%
%TO.N,GND*%
X184650000Y-52075000D03*
X196350000Y-52075000D03*
%TD*%
D11*
%TO.P,U1,61,GND*%
%TO.N,GND*%
X189250000Y-73900000D03*
X189250000Y-75275000D03*
X189250000Y-76650000D03*
X190625000Y-73900000D03*
X190625000Y-75275000D03*
X190625000Y-76650000D03*
X192000000Y-73900000D03*
X192000000Y-75275000D03*
X192000000Y-76650000D03*
%TD*%
D12*
%TO.N,/USB_D-*%
X191500000Y-66800000D03*
%TO.N,/USB_D+*%
X190812500Y-66187500D03*
%TO.N,GND*%
X193550000Y-63475000D03*
X186950000Y-62500000D03*
X195080000Y-80450000D03*
X185375000Y-78675000D03*
X193025000Y-70850000D03*
%TO.N,/USB_D+*%
X191875000Y-60225000D03*
%TO.N,/USB_D-*%
X191500000Y-61700000D03*
%TD*%
D13*
%TO.N,/USB_D+*%
X190812500Y-66187500D02*
X191099000Y-65901000D01*
X191099000Y-65901000D02*
X191099000Y-62148943D01*
X191099000Y-62148943D02*
X190899000Y-61948943D01*
X190899000Y-61948943D02*
X190899000Y-61451057D01*
X190899000Y-61451057D02*
X191250000Y-61100057D01*
X191250000Y-60850000D02*
X191875000Y-60225000D01*
X191250000Y-61100057D02*
X191250000Y-60850000D01*
%TO.N,/USB_D-*%
X191500000Y-66800000D02*
X191500000Y-61700000D01*
%TD*%
%TA.AperFunction,Conductor*%
%TO.N,GND*%
G36*
X195819731Y-49895185D02*
G01*
X195865486Y-49947989D01*
X195875430Y-50017147D01*
X195846405Y-50080703D01*
X195808987Y-50109985D01*
X195747265Y-50141434D01*
X195600830Y-50247823D01*
X195472823Y-50375830D01*
X195366434Y-50522265D01*
X195284252Y-50683552D01*
X195284251Y-50683555D01*
X195228317Y-50855706D01*
X195200000Y-51034493D01*
X195200000Y-51825000D01*
X196000000Y-51825000D01*
X196000000Y-52325000D01*
X195200000Y-52325000D01*
X195200000Y-53115506D01*
X195228317Y-53294293D01*
X195284251Y-53466444D01*
X195284252Y-53466447D01*
X195366434Y-53627734D01*
X195472823Y-53774169D01*
X195600830Y-53902176D01*
X195747265Y-54008565D01*
X195908552Y-54090747D01*
X195908555Y-54090748D01*
X196080699Y-54146680D01*
X196080712Y-54146683D01*
X196100000Y-54149738D01*
X196100000Y-53219975D01*
X196135095Y-53255070D01*
X196214905Y-53301148D01*
X196303922Y-53325000D01*
X196396078Y-53325000D01*
X196485095Y-53301148D01*
X196564905Y-53255070D01*
X196600000Y-53219975D01*
X196600000Y-54149737D01*
X196619287Y-54146683D01*
X196619300Y-54146680D01*
X196791444Y-54090748D01*
X196791447Y-54090747D01*
X196952734Y-54008565D01*
X197052615Y-53935999D01*
X197118421Y-53912519D01*
X197186475Y-53928345D01*
X197235170Y-53978450D01*
X197249500Y-54036317D01*
X197249500Y-83100500D01*
X197229815Y-83167539D01*
X197177011Y-83213294D01*
X197125500Y-83224500D01*
X183924500Y-83224500D01*
X183857461Y-83204815D01*
X183811706Y-83152011D01*
X183800500Y-83100500D01*
X183800500Y-66108653D01*
X190012000Y-66108653D01*
X190012000Y-66266346D01*
X190042761Y-66420989D01*
X190042764Y-66421001D01*
X190103102Y-66566672D01*
X190103109Y-66566685D01*
X190190710Y-66697788D01*
X190190713Y-66697792D01*
X190302207Y-66809286D01*
X190302211Y-66809289D01*
X190433314Y-66896890D01*
X190433327Y-66896897D01*
X190501461Y-66925118D01*
X190579003Y-66957237D01*
X190644415Y-66970248D01*
X190706325Y-67002632D01*
X190734784Y-67044413D01*
X190790602Y-67179172D01*
X190790609Y-67179185D01*
X190878210Y-67310288D01*
X190878213Y-67310292D01*
X190989707Y-67421786D01*
X190989711Y-67421789D01*
X191120814Y-67509390D01*
X191120827Y-67509397D01*
X191266498Y-67569735D01*
X191266503Y-67569737D01*
X191421153Y-67600499D01*
X191421156Y-67600500D01*
X191421158Y-67600500D01*
X191578844Y-67600500D01*
X191578845Y-67600499D01*
X191733497Y-67569737D01*
X191879179Y-67509394D01*
X192010289Y-67421789D01*
X192121789Y-67310289D01*
X192209394Y-67179179D01*
X192269737Y-67033497D01*
X192300500Y-66878842D01*
X192300500Y-66721158D01*
X192300500Y-66721155D01*
X192300499Y-66721153D01*
X192269772Y-66566679D01*
X192269737Y-66566503D01*
X192209464Y-66420989D01*
X192209397Y-66420827D01*
X192209390Y-66420814D01*
X192121398Y-66289125D01*
X192100520Y-66222447D01*
X192100500Y-66220234D01*
X192100500Y-62279765D01*
X192120185Y-62212726D01*
X192121398Y-62210874D01*
X192125139Y-62205276D01*
X192209394Y-62079179D01*
X192269737Y-61933497D01*
X192300500Y-61778842D01*
X192300500Y-61621158D01*
X192300500Y-61621155D01*
X192300499Y-61621153D01*
X192269737Y-61466503D01*
X192230593Y-61372000D01*
X192209397Y-61320827D01*
X192209390Y-61320814D01*
X192121789Y-61189711D01*
X192121786Y-61189707D01*
X192111253Y-61179174D01*
X192077768Y-61117851D01*
X192082752Y-61048159D01*
X192124624Y-60992226D01*
X192151482Y-60976932D01*
X192254173Y-60934397D01*
X192254176Y-60934395D01*
X192254179Y-60934394D01*
X192385289Y-60846789D01*
X192496789Y-60735289D01*
X192584394Y-60604179D01*
X192644737Y-60458497D01*
X192675500Y-60303842D01*
X192675500Y-60146158D01*
X192675500Y-60146155D01*
X192675499Y-60146153D01*
X192644738Y-59991510D01*
X192644738Y-59991508D01*
X192644737Y-59991503D01*
X192644735Y-59991498D01*
X192584397Y-59845827D01*
X192584390Y-59845814D01*
X192496789Y-59714711D01*
X192496786Y-59714707D01*
X192385292Y-59603213D01*
X192385288Y-59603210D01*
X192254185Y-59515609D01*
X192254172Y-59515602D01*
X192108501Y-59455264D01*
X192108489Y-59455261D01*
X191953845Y-59424500D01*
X191953842Y-59424500D01*
X191796158Y-59424500D01*
X191796155Y-59424500D01*
X191641510Y-59455261D01*
X191641498Y-59455264D01*
X191495827Y-59515602D01*
X191495814Y-59515609D01*
X191364711Y-59603210D01*
X191364707Y-59603213D01*
X191253213Y-59714707D01*
X191253210Y-59714711D01*
X191165609Y-59845814D01*
X191165602Y-59845827D01*
X191105264Y-59991498D01*
X191105261Y-59991508D01*
X191074361Y-60146849D01*
X191065595Y-60163605D01*
X191061576Y-60182084D01*
X191042831Y-60207124D01*
X191041976Y-60208760D01*
X191040426Y-60210338D01*
X190968550Y-60282213D01*
X190881286Y-60369478D01*
X190881285Y-60369478D01*
X190881284Y-60369479D01*
X190769481Y-60481282D01*
X190769479Y-60481285D01*
X190719361Y-60568094D01*
X190719359Y-60568096D01*
X190690425Y-60618209D01*
X190690424Y-60618210D01*
X190690423Y-60618215D01*
X190649499Y-60770943D01*
X190649499Y-60770945D01*
X190649499Y-60799960D01*
X190629814Y-60866999D01*
X190613180Y-60887641D01*
X190418481Y-61082339D01*
X190418479Y-61082341D01*
X190401763Y-61111295D01*
X190394697Y-61123535D01*
X190339423Y-61219272D01*
X190298499Y-61372000D01*
X190298499Y-61372002D01*
X190298499Y-61540103D01*
X190298500Y-61540116D01*
X190298500Y-61862273D01*
X190298499Y-61862291D01*
X190298499Y-62027997D01*
X190298498Y-62027997D01*
X190339423Y-62180728D01*
X190350768Y-62200379D01*
X190350771Y-62200384D01*
X190353596Y-62205276D01*
X190418480Y-62317659D01*
X190469690Y-62368869D01*
X190475808Y-62377537D01*
X190483806Y-62400963D01*
X190495666Y-62422683D01*
X190497709Y-62441685D01*
X190498383Y-62443659D01*
X190498061Y-62444961D01*
X190498500Y-62449041D01*
X190498500Y-65368943D01*
X190478815Y-65435982D01*
X190437795Y-65473837D01*
X190438386Y-65474721D01*
X190302211Y-65565710D01*
X190302207Y-65565713D01*
X190190713Y-65677207D01*
X190190710Y-65677211D01*
X190103109Y-65808314D01*
X190103102Y-65808327D01*
X190042764Y-65953998D01*
X190042761Y-65954010D01*
X190012000Y-66108653D01*
X183800500Y-66108653D01*
X183800500Y-54072644D01*
X183820185Y-54005605D01*
X183872989Y-53959850D01*
X183942147Y-53949906D01*
X183997385Y-53972326D01*
X184047265Y-54008565D01*
X184208552Y-54090747D01*
X184208555Y-54090748D01*
X184380699Y-54146680D01*
X184380712Y-54146683D01*
X184400000Y-54149738D01*
X184400000Y-53219975D01*
X184435095Y-53255070D01*
X184514905Y-53301148D01*
X184603922Y-53325000D01*
X184696078Y-53325000D01*
X184785095Y-53301148D01*
X184864905Y-53255070D01*
X184900000Y-53219975D01*
X184900000Y-54149737D01*
X184919287Y-54146683D01*
X184919300Y-54146680D01*
X185091444Y-54090748D01*
X185091447Y-54090747D01*
X185252734Y-54008565D01*
X185399169Y-53902176D01*
X185527176Y-53774169D01*
X185633565Y-53627734D01*
X185715747Y-53466447D01*
X185715748Y-53466444D01*
X185771682Y-53294293D01*
X185800000Y-53115506D01*
X185800000Y-52325000D01*
X185000000Y-52325000D01*
X185000000Y-51996153D01*
X187449500Y-51996153D01*
X187449500Y-52153846D01*
X187480261Y-52308489D01*
X187480264Y-52308501D01*
X187540602Y-52454172D01*
X187540609Y-52454185D01*
X187628210Y-52585288D01*
X187628213Y-52585292D01*
X187739707Y-52696786D01*
X187739711Y-52696789D01*
X187870814Y-52784390D01*
X187870827Y-52784397D01*
X188016498Y-52844735D01*
X188016503Y-52844737D01*
X188171153Y-52875499D01*
X188171156Y-52875500D01*
X188171158Y-52875500D01*
X188328844Y-52875500D01*
X188328845Y-52875499D01*
X188483497Y-52844737D01*
X188629179Y-52784394D01*
X188760289Y-52696789D01*
X188871789Y-52585289D01*
X188959394Y-52454179D01*
X189019737Y-52308497D01*
X189050500Y-52153842D01*
X189050500Y-51996158D01*
X189050500Y-51996155D01*
X189050499Y-51996153D01*
X191949500Y-51996153D01*
X191949500Y-52153846D01*
X191980261Y-52308489D01*
X191980264Y-52308501D01*
X192040602Y-52454172D01*
X192040609Y-52454185D01*
X192128210Y-52585288D01*
X192128213Y-52585292D01*
X192239707Y-52696786D01*
X192239711Y-52696789D01*
X192370814Y-52784390D01*
X192370827Y-52784397D01*
X192516498Y-52844735D01*
X192516503Y-52844737D01*
X192671153Y-52875499D01*
X192671156Y-52875500D01*
X192671158Y-52875500D01*
X192828844Y-52875500D01*
X192828845Y-52875499D01*
X192983497Y-52844737D01*
X193129179Y-52784394D01*
X193260289Y-52696789D01*
X193371789Y-52585289D01*
X193459394Y-52454179D01*
X193519737Y-52308497D01*
X193533739Y-52238102D01*
X193550500Y-52153844D01*
X193550500Y-51996155D01*
X193550499Y-51996153D01*
X193530873Y-51897489D01*
X193519737Y-51841503D01*
X193512901Y-51825000D01*
X193459397Y-51695827D01*
X193459390Y-51695814D01*
X193371789Y-51564711D01*
X193371786Y-51564707D01*
X193260292Y-51453213D01*
X193260288Y-51453210D01*
X193129185Y-51365609D01*
X193129172Y-51365602D01*
X192983501Y-51305264D01*
X192983489Y-51305261D01*
X192828845Y-51274500D01*
X192828842Y-51274500D01*
X192671158Y-51274500D01*
X192671155Y-51274500D01*
X192516510Y-51305261D01*
X192516498Y-51305264D01*
X192370827Y-51365602D01*
X192370814Y-51365609D01*
X192239711Y-51453210D01*
X192239707Y-51453213D01*
X192128213Y-51564707D01*
X192128210Y-51564711D01*
X192040609Y-51695814D01*
X192040602Y-51695827D01*
X191980264Y-51841498D01*
X191980261Y-51841510D01*
X191949500Y-51996153D01*
X189050499Y-51996153D01*
X189030873Y-51897489D01*
X189019737Y-51841503D01*
X189012901Y-51825000D01*
X188959397Y-51695827D01*
X188959390Y-51695814D01*
X188871789Y-51564711D01*
X188871786Y-51564707D01*
X188760292Y-51453213D01*
X188760288Y-51453210D01*
X188629185Y-51365609D01*
X188629172Y-51365602D01*
X188483501Y-51305264D01*
X188483489Y-51305261D01*
X188328845Y-51274500D01*
X188328842Y-51274500D01*
X188171158Y-51274500D01*
X188171155Y-51274500D01*
X188016510Y-51305261D01*
X188016498Y-51305264D01*
X187870827Y-51365602D01*
X187870814Y-51365609D01*
X187739711Y-51453210D01*
X187739707Y-51453213D01*
X187628213Y-51564707D01*
X187628210Y-51564711D01*
X187540609Y-51695814D01*
X187540602Y-51695827D01*
X187480264Y-51841498D01*
X187480261Y-51841510D01*
X187449500Y-51996153D01*
X185000000Y-51996153D01*
X185000000Y-51825000D01*
X185800000Y-51825000D01*
X185800000Y-51034493D01*
X185771682Y-50855706D01*
X185715748Y-50683555D01*
X185715747Y-50683552D01*
X185633565Y-50522265D01*
X185527176Y-50375830D01*
X185399169Y-50247823D01*
X185252734Y-50141434D01*
X185191013Y-50109985D01*
X185140217Y-50062010D01*
X185123422Y-49994189D01*
X185145960Y-49928054D01*
X185200675Y-49884603D01*
X185247308Y-49875500D01*
X195752692Y-49875500D01*
X195819731Y-49895185D01*
G37*
%TD.AperFunction*%
%TD*%
M02*
