%TF.GenerationSoftware,KiCad,Pcbnew,9.0.5*%
%TF.CreationDate,2025-11-01T21:25:22+11:00*%
%TF.ProjectId,YetAnotherAuthKey,59657441-6e6f-4746-9865-72417574684b,rev?*%
%TF.SameCoordinates,Original*%
%TF.FileFunction,Legend,Top*%
%TF.FilePolarity,Positive*%
%FSLAX46Y46*%
G04 Gerber Fmt 4.6, Leading zero omitted, Abs format (unit mm)*
G04 Created by KiCad (PCBNEW 9.0.5) date 2025-11-01 21:25:22*
%MOMM*%
%LPD*%
G01*
G04 APERTURE LIST*
%ADD10C,0.150000*%
%ADD11C,0.120000*%
G04 APERTURE END LIST*
D10*
X182454819Y-44033333D02*
X183169104Y-44033333D01*
X183169104Y-44033333D02*
X183311961Y-44080952D01*
X183311961Y-44080952D02*
X183407200Y-44176190D01*
X183407200Y-44176190D02*
X183454819Y-44319047D01*
X183454819Y-44319047D02*
X183454819Y-44414285D01*
X183454819Y-43033333D02*
X183454819Y-43604761D01*
X183454819Y-43319047D02*
X182454819Y-43319047D01*
X182454819Y-43319047D02*
X182597676Y-43414285D01*
X182597676Y-43414285D02*
X182692914Y-43509523D01*
X182692914Y-43509523D02*
X182740533Y-43604761D01*
D11*
%TO.C,R3*%
X192180000Y-68553641D02*
X192180000Y-68246359D01*
X191420000Y-68553641D02*
X191420000Y-68246359D01*
%TO.C,C8*%
X194442164Y-65190000D02*
X194657836Y-65190000D01*
X194442164Y-65910000D02*
X194657836Y-65910000D01*
%TO.C,C1*%
X184540000Y-55940580D02*
X184540000Y-55659420D01*
X185560000Y-55940580D02*
X185560000Y-55659420D01*
%TO.C,SW1*%
X185980000Y-64430000D02*
X186280000Y-64430000D01*
X185980000Y-68570000D02*
X185980000Y-64430000D01*
X186280000Y-68570000D02*
X185980000Y-68570000D01*
X188820000Y-64430000D02*
X189120000Y-64430000D01*
X189120000Y-64430000D02*
X189120000Y-68570000D01*
X189120000Y-68570000D02*
X188820000Y-68570000D01*
%TO.C,C6*%
X195690000Y-70137836D02*
X195690000Y-69922164D01*
X196410000Y-70137836D02*
X196410000Y-69922164D01*
%TO.C,U2*%
X184740000Y-58540000D02*
X185740000Y-58540000D01*
X184740000Y-60060000D02*
X184740000Y-58540000D01*
X184790000Y-60060000D02*
X184740000Y-60060000D01*
X186690000Y-60060000D02*
X185910000Y-60060000D01*
X186860000Y-58540000D02*
X187860000Y-58540000D01*
X187860000Y-58540000D02*
X187860000Y-60060000D01*
X187860000Y-60060000D02*
X187810000Y-60060000D01*
X186250000Y-60840000D02*
X185920000Y-60600000D01*
X186250000Y-60360000D01*
X186250000Y-60840000D01*
G36*
X186250000Y-60840000D02*
G01*
X185920000Y-60600000D01*
X186250000Y-60360000D01*
X186250000Y-60840000D01*
G37*
%TO.C,C12*%
X196327836Y-78565000D02*
X196112164Y-78565000D01*
X196327836Y-79285000D02*
X196112164Y-79285000D01*
%TO.C,C2*%
X188090000Y-61571920D02*
X188090000Y-61853080D01*
X189110000Y-61571920D02*
X189110000Y-61853080D01*
%TO.C,Y1*%
X186540000Y-79590000D02*
X186540000Y-83010000D01*
X186540000Y-83010000D02*
X190660000Y-83010000D01*
%TO.C,C10*%
X194442164Y-64090000D02*
X194657836Y-64090000D01*
X194442164Y-64810000D02*
X194657836Y-64810000D01*
%TO.C,J1*%
X184390000Y-50215000D02*
X184390000Y-49945000D01*
X185100000Y-54000000D02*
X186140000Y-54000000D01*
X186140000Y-56100000D02*
X186140000Y-54000000D01*
X186140000Y-56100000D02*
X186600000Y-56100000D01*
X194860000Y-54000000D02*
X195900000Y-54000000D01*
X194860000Y-55620000D02*
X194860000Y-54000000D01*
X196610000Y-50215000D02*
X196610000Y-49945000D01*
%TO.C,L1*%
X192790000Y-68417164D02*
X192790000Y-68632836D01*
X193510000Y-68417164D02*
X193510000Y-68632836D01*
%TO.C,C11*%
X196337836Y-79515000D02*
X196122164Y-79515000D01*
X196337836Y-80235000D02*
X196122164Y-80235000D01*
%TO.C,C17*%
X196307836Y-71390000D02*
X196092164Y-71390000D01*
X196307836Y-72110000D02*
X196092164Y-72110000D01*
%TO.C,R2*%
X190220000Y-68543641D02*
X190220000Y-68236359D01*
X190980000Y-68543641D02*
X190980000Y-68236359D01*
%TO.C,C9*%
X194442164Y-66290000D02*
X194657836Y-66290000D01*
X194442164Y-67010000D02*
X194657836Y-67010000D01*
%TO.C,R4*%
X186913641Y-69420000D02*
X186606359Y-69420000D01*
X186913641Y-70180000D02*
X186606359Y-70180000D01*
%TO.C,R6*%
X194411359Y-70245000D02*
X194718641Y-70245000D01*
X194411359Y-71005000D02*
X194718641Y-71005000D01*
%TO.C,C15*%
X196307836Y-74240000D02*
X196092164Y-74240000D01*
X196307836Y-74960000D02*
X196092164Y-74960000D01*
%TO.C,U1*%
X187015000Y-78885000D02*
X187015000Y-78435000D01*
X187465000Y-71665000D02*
X187015000Y-71665000D01*
X187465000Y-78885000D02*
X187015000Y-78885000D01*
X193785000Y-71665000D02*
X194235000Y-71665000D01*
X193785000Y-78885000D02*
X194235000Y-78885000D01*
X194235000Y-71665000D02*
X194235000Y-72115000D01*
X194235000Y-78885000D02*
X194235000Y-78435000D01*
%TO.C,C7*%
X194462164Y-69190000D02*
X194677836Y-69190000D01*
X194462164Y-69910000D02*
X194677836Y-69910000D01*
%TO.C,C3*%
X185590000Y-81487836D02*
X185590000Y-81272164D01*
X186310000Y-81487836D02*
X186310000Y-81272164D01*
%TO.C,C19*%
X196307836Y-73280000D02*
X196092164Y-73280000D01*
X196307836Y-74000000D02*
X196092164Y-74000000D01*
%TO.C,C18*%
X196307836Y-72340000D02*
X196092164Y-72340000D01*
X196307836Y-73060000D02*
X196092164Y-73060000D01*
%TO.C,C14*%
X196312836Y-76665000D02*
X196097164Y-76665000D01*
X196312836Y-77385000D02*
X196097164Y-77385000D01*
%TO.C,C4*%
X190890000Y-81222164D02*
X190890000Y-81437836D01*
X191610000Y-81222164D02*
X191610000Y-81437836D01*
%TO.C,C16*%
X196312836Y-75715000D02*
X196097164Y-75715000D01*
X196312836Y-76435000D02*
X196097164Y-76435000D01*
%TO.C,C5*%
X194442164Y-67340000D02*
X194657836Y-67340000D01*
X194442164Y-68060000D02*
X194657836Y-68060000D01*
%TO.C,C13*%
X196327836Y-77615000D02*
X196112164Y-77615000D01*
X196327836Y-78335000D02*
X196112164Y-78335000D01*
%TO.C,R5*%
X191546359Y-79520000D02*
X191853641Y-79520000D01*
X191546359Y-80280000D02*
X191853641Y-80280000D01*
%TD*%
M02*
